<svg xmlns="http://www.w3.org/2000/svg" fill="none" viewBox="0 0 24 24"><path fill="currentColor" d="M19.942 12.632c-.12-1.263-.318-1.509-.392-1.601-.172-.214-.447-.354-.737-.5a.1.1 0 0 1-.042-.034.11.11 0 0 1-.017-.1.1.1 0 0 1 .028-.044.47.47 0 0 0 .151-.392.5.5 0 0 0-.176-.33.56.56 0 0 0-.369-.131h-.52l-.067.004a.3.3 0 0 0-.047-.015c-.308-.61-.73-1.446-1.604-1.853C14.855 7.03 12.466 7 12 7s-2.855.031-4.15.635c-.874.408-1.296 1.243-1.604 1.853l-.003.005a.2.2 0 0 0-.045.011L6.132 9.5H5.61a.56.56 0 0 0-.369.131.47.47 0 0 0-.023.72.106.106 0 0 1 .011.143.1.1 0 0 1-.042.035c-.29.147-.567.287-.737.5-.075.094-.272.338-.392 1.601-.067.71-.077 1.446-.025 1.92.11.984.316 1.58.324 1.604a.5.5 0 0 0 .168.23c.078.06.172.098.272.11v.006c0 .133.057.26.157.354s.235.146.377.146h1.867a.55.55 0 0 0 .377-.146.49.49 0 0 0 .156-.354 2.7 2.7 0 0 0 .699-.1q.459-.116.933-.153A32 32 0 0 1 12 16.125c.595 0 1.65.031 2.67.122q.475.038.937.154c.203.049.395.094.661.099 0 .132.056.26.156.353.1.094.236.147.378.147h1.867a.55.55 0 0 0 .377-.147c.1-.094.156-.22.156-.353v-.004a.55.55 0 0 0 .273-.11.5.5 0 0 0 .168-.23c.009-.024.215-.62.324-1.604.053-.474.043-1.208-.024-1.92zM7.21 9.916c.267-.531.572-1.133 1.115-1.386.785-.366 2.411-.531 3.675-.531s2.89.163 3.675.531c.543.253.847.855 1.115 1.386l.033.068a.24.24 0 0 1-.018.243.26.26 0 0 1-.1.085.3.3 0 0 1-.13.029c-1.108-.028-3.442-.118-4.575-.118s-3.467.092-4.577.12a.3.3 0 0 1-.13-.029.26.26 0 0 1-.1-.085.24.24 0 0 1-.018-.243zm.398 2.488q-.861.098-1.728.096c-.354 0-.718-.094-.786-.389a.9.9 0 0 1-.016-.422c.02-.095.054-.165.22-.189.434-.063.677.016 1.386.212.47.13.81.302 1.003.44.097.067.046.243-.08.252zm7.38 2.563c-.438.047-1.316.03-2.978.03s-2.54.017-2.978-.03c-.453-.047-1.03-.449-.636-.806.262-.236.874-.412 1.69-.511.815-.1 1.16-.15 1.92-.15.761 0 1.071.031 1.921.15.85.12 1.493.298 1.69.511.36.383-.176.756-.629.808zm3.918-2.856c-.067.296-.434.389-.786.389a16 16 0 0 1-1.761-.096c-.102-.009-.15-.177-.047-.253.19-.14.534-.31 1.004-.44.71-.195 1.118-.274 1.47-.209.085.016.13.103.136.157.023.15.018.304-.016.452"/></svg>