<svg viewBox="0 0 24 24" fill="none" xmlns="http://www.w3.org/2000/svg"><path d="M10 4H7.333A3.333 3.333 0 0 0 4 7.333v9.334A3.333 3.333 0 0 0 7.333 20h6V7.333A3.334 3.334 0 0 0 10 4zM7.333 16.667h-.666a.667.667 0 0 1 0-1.334h.666a.667.667 0 0 1 0 1.334zm0-2.667h-.666a.666.666 0 1 1 0-1.333h.666a.667.667 0 1 1 0 1.333zm0-2.667h-.666a.667.667 0 1 1 0-1.333h.666a.666.666 0 1 1 0 1.333zm0-2.666h-.666a.667.667 0 0 1 0-1.334h.666a.667.667 0 0 1 0 1.334zm3.334 8H10a.667.667 0 0 1 0-1.334h.667a.667.667 0 0 1 0 1.334zm0-2.667H10a.666.666 0 1 1 0-1.333h.667a.667.667 0 0 1 0 1.333zm0-2.667H10A.667.667 0 1 1 10 10h.667a.667.667 0 1 1 0 1.333zm0-2.666H10a.667.667 0 1 1 0-1.334h.667a.667.667 0 0 1 0 1.334zm6-1.334h-2V20h2A3.337 3.337 0 0 0 20 16.667v-6a3.338 3.338 0 0 0-3.333-3.334zm.666 9.334a.666.666 0 1 1 0-1.333.666.666 0 0 1 0 1.333zm0-2.667a.666.666 0 1 1 0-1.332.666.666 0 0 1 0 1.332zm0-2.667a.667.667 0 1 1 0-1.333.667.667 0 0 1 0 1.333z" fill="currentColor"/></svg>