<svg viewBox="0 0 24 24" fill="none" xmlns="http://www.w3.org/2000/svg"><g clip-path="url(#a)"><path fill="#fff" d="M3 5h18v14H3z"/><path fill-rule="evenodd" clip-rule="evenodd" d="M1.687 1.687C0 3.374 0 6.09 0 11.52v.96c0 5.43 0 8.146 1.687 9.833C3.374 24 6.09 24 11.52 24h.96c5.43 0 8.146 0 9.833-1.687C24 20.626 24 17.91 24 12.48v-.96c0-5.43 0-8.146-1.687-9.833C20.626 0 17.91 0 12.48 0h-.96C6.09 0 3.374 0 1.687 1.687z" fill="url(#b)"/><path d="m19.667 17.598-1.426 1.427s-3.749 1.548-9.25-3.954C3.49 9.57 5.038 5.821 5.038 5.821l1.426-1.426c.645-.645 1.733-.547 2.305.207l1.423 1.877c.468.617.423 1.466-.104 1.994l-1.2 1.2s.02 1.08 2.221 3.28c2.2 2.2 3.28 2.22 3.28 2.22l1.2-1.2c.528-.526 1.377-.57 1.994-.103l1.877 1.423c.754.572.852 1.66.207 2.305z" fill="#fff"/></g><defs><linearGradient id="b" x1="18" y1="0" x2="12" y2="24" gradientUnits="userSpaceOnUse"><stop stop-color="#5DFD7B"/><stop offset="1" stop-color="#21AB32"/></linearGradient><clipPath id="a"><path fill="#fff" d="M0 0h24v24H0z"/></clipPath></defs></svg>