<svg viewBox="0 0 24 24" fill="none" xmlns="http://www.w3.org/2000/svg"><path d="m18.989 11.293-6.99 4.097-6.99-4.097a.68.68 0 0 0-.504-.074.666.666 0 0 0-.41.297.638.638 0 0 0-.075.493.652.652 0 0 0 .304.4l7.333 4.298a.679.679 0 0 0 .686 0l7.333-4.298a.652.652 0 0 0 .304-.4.638.638 0 0 0-.075-.493.666.666 0 0 0-.41-.297.68.68 0 0 0-.505.074h-.001z" fill="currentColor"/><path d="m18.989 14.493-6.99 4.096-6.99-4.096a.677.677 0 0 0-.914.223.642.642 0 0 0 .229.894l7.333 4.297a.678.678 0 0 0 .686 0l7.333-4.297a.653.653 0 0 0 .304-.4.638.638 0 0 0-.075-.494.666.666 0 0 0-.41-.296.68.68 0 0 0-.505.073h-.001zM4.323 9.365l6.656 3.954a1.995 1.995 0 0 0 2.042 0l6.656-3.954A.663.663 0 0 0 20 8.8a.655.655 0 0 0-.323-.566L13.02 4.28a1.997 1.997 0 0 0-2.042 0L4.323 8.234A.663.663 0 0 0 4 8.8a.655.655 0 0 0 .323.565z" fill="currentColor"/></svg>