<svg xmlns="http://www.w3.org/2000/svg" width="24" height="24" fill="none" viewBox="0 0 24 24"><path fill="#fff" d="M12 2a10.01 10.01 0 0 0-10 9.997c-.104 7.975 9.3 12.854 15.75 8.178a.833.833 0 1 0-.96-1.36c-5.373 3.892-13.206-.172-13.123-6.818.458-11.052 16.21-11.05 16.666 0v1.666a1.666 1.666 0 0 1-3.333 0v-1.666c-.21-6.606-9.79-6.605-10 0a5.012 5.012 0 0 0 6.226 4.816 5 5 0 0 0 2.54-1.54A3.333 3.333 0 0 0 22 13.664v-1.666A10.007 10.007 0 0 0 12 2m0 13.33a3.334 3.334 0 0 1-2.356-5.69A3.334 3.334 0 1 1 12 15.33"/></svg>