<svg width="20" height="20" viewBox="0 0 20 20" fill="none" xmlns="http://www.w3.org/2000/svg">
<path d="M10.0004 0C7.34927 0.0028667 4.8075 1.05704 2.93284 2.93121C1.05818 4.80539 0.00373907 7.3465 0.000871626 9.99698C-0.104124 17.9721 9.29963 22.8506 15.7502 18.1753C15.8429 18.1137 15.9223 18.0341 15.9837 17.9413C16.0451 17.8484 16.0873 17.7442 16.1078 17.6348C16.1282 17.5254 16.1266 17.413 16.1028 17.3043C16.0791 17.1955 16.0339 17.0926 15.9697 17.0017C15.9056 16.9107 15.8238 16.8335 15.7294 16.7746C15.6349 16.7158 15.5295 16.6764 15.4196 16.659C15.3096 16.6415 15.1973 16.6462 15.0892 16.6728C14.9811 16.6995 14.8794 16.7475 14.7902 16.8141C9.41713 20.7071 1.58414 16.6433 1.66747 9.99698C2.12495 -1.05468 17.8776 -1.05218 18.3334 9.99698V11.6631C18.3334 12.105 18.1578 12.5288 17.8453 12.8413C17.5327 13.1538 17.1088 13.3293 16.6668 13.3293C16.2248 13.3293 15.8009 13.1538 15.4884 12.8413C15.1758 12.5288 15.0002 12.105 15.0002 11.6631V9.99698C14.7902 3.39148 5.20981 3.39231 5.00065 9.99698C5.01035 11.01 5.32685 11.9963 5.90843 12.8259C6.49002 13.6555 7.30939 14.2895 8.25856 14.6443C9.20772 14.999 10.2421 15.0579 11.2255 14.8132C12.2088 14.5685 13.0949 14.0317 13.7669 13.2735C14.1284 13.9113 14.6902 14.4122 15.3653 14.6985C16.0403 14.9848 16.791 15.0405 17.5009 14.8571C18.2109 14.6737 18.8406 14.2613 19.2924 13.6839C19.7441 13.1065 19.9929 12.3962 20 11.6631V9.99698C19.9971 7.3465 18.9427 4.80539 17.068 2.93121C15.1934 1.05704 12.6516 0.0028667 10.0004 0ZM10.0004 13.3293C9.11642 13.3293 8.26861 12.9782 7.64352 12.3533C7.01842 11.7284 6.66725 10.8808 6.66725 9.99698C6.66725 9.11319 7.01842 8.2656 7.64352 7.64067C8.26861 7.01574 9.11642 6.66465 10.0004 6.66465C10.8845 6.66465 11.7323 7.01574 12.3574 7.64067C12.9824 8.2656 13.3336 9.11319 13.3336 9.99698C13.3336 10.8808 12.9824 11.7284 12.3574 12.3533C11.7323 12.9782 10.8845 13.3293 10.0004 13.3293Z" fill="white"/>
</svg>
