<svg xmlns="http://www.w3.org/2000/svg" fill="none" viewBox="0 0 24 24"><path fill="currentColor" d="M14.25 13.124a2.63 2.63 0 0 0-2.625-2.625h-6A2.63 2.63 0 0 0 3 13.124a2.62 2.62 0 0 0 1.5 2.362v1.763h-.75a.75.75 0 1 0 0 1.5h.75v1.5a.75.75 0 1 0 1.5 0v-1.5h5.25v1.5a.75.75 0 1 0 1.5 0v-1.5h.75a.75.75 0 1 0 0-1.5h-.75v-1.763a2.62 2.62 0 0 0 1.5-2.362M6 17.25v-1.5h5.25v1.5zm14.657-6.629c.366.72.435 1.475.223 2.225-.392 1.386-1.757 2.287-3.24 2.138-.181-.018-.258.024-.3.06a.3.3 0 0 0-.09.227v4.98a.75.75 0 1 1-1.5 0v-7.126a4.11 4.11 0 0 0-3.173-4.014.75.75 0 0 1-.573-.816c.07-.615.5-1.203 1.277-1.745.204-.142.22-.39.22-.492a3 3 0 0 1 .229-1.207 2.96 2.96 0 0 1 1.977-1.748 3.1 3.1 0 0 1 1.608.006c.878.235 1.61.888 1.957 1.745.16.398.237.806.227 1.215-.002.12.023.344.22.483A2.99 2.99 0 0 1 21 9.001c0 .44-.104.882-.308 1.31-.078.164-.072.231-.072.231.003.012.024.052.038.079z"/></svg>