<svg viewBox="0 0 24 24" fill="none" xmlns="http://www.w3.org/2000/svg"><path d="M14.25 13.124a2.628 2.628 0 0 0-2.625-2.625h-6A2.628 2.628 0 0 0 3 13.124c0 1.044.616 1.94 1.5 2.362v1.763h-.75a.75.75 0 1 0 0 1.5h.75v1.5a.75.75 0 1 0 1.5 0v-1.5h5.25v1.5a.75.75 0 1 0 1.5 0v-1.5h.75a.75.75 0 1 0 0-1.5h-.75v-1.763a2.622 2.622 0 0 0 1.5-2.362zM6 17.25v-1.5h5.25v1.5H6zm14.657-6.629c.366.72.435 1.475.223 2.225-.392 1.386-1.757 2.287-3.24 2.138-.181-.018-.258.024-.3.06a.293.293 0 0 0-.09.227v4.98a.75.75 0 1 1-1.5 0v-7.126a4.108 4.108 0 0 0-3.173-4.014.751.751 0 0 1-.573-.816c.07-.615.5-1.203 1.277-1.745.204-.142.22-.39.22-.492a3.029 3.029 0 0 1 .229-1.207 2.958 2.958 0 0 1 1.977-1.748 3.122 3.122 0 0 1 1.608.006c.878.235 1.61.888 1.957 1.745.16.398.237.806.227 1.215-.002.12.023.344.22.483A2.988 2.988 0 0 1 21 9.001c0 .44-.104.882-.308 1.31-.078.164-.072.231-.072.231.003.012.024.052.038.079z" fill="currentColor"/></svg>