<svg viewBox="0 0 24 24" fill="none" xmlns="http://www.w3.org/2000/svg"><path d="m8.066 9.058 2.797-1.956a1.789 1.789 0 0 1 1.085-.322 2.34 2.34 0 0 1 1.313.438c.38.274.66.655.805 1.09.162.49.31.821.445.993.406.522.933.945 1.538 1.236.354.17.73.293 1.115.365.456.086.836.454.836.918s-.377.845-.837.785a6.276 6.276 0 0 1-1.77-.506 6.07 6.07 0 0 1-2.107-1.579l-.608 3.322 1.798 1.453 1.625 4.297a.869.869 0 1 1-1.625.615l-1.48-3.914-2.96-2.39a1.684 1.684 0 0 1-.537-.718 1.62 1.62 0 0 1-.084-.88l.444-2.424-.59.413-1.357 1.797a.861.861 0 0 1-1.374-1.038l1.514-2.005.014.01zM13.2 6.36a1.78 1.78 0 0 1-1.234-.492 1.649 1.649 0 0 1-.511-1.188c0-.446.184-.873.511-1.188A1.78 1.78 0 0 1 13.2 3c.463 0 .907.177 1.235.492.327.315.51.742.51 1.188 0 .445-.183.873-.51 1.188a1.78 1.78 0 0 1-1.235.492zM10.607 17.43l-2.262 2.594a.858.858 0 1 1-1.294-1.128l2.011-2.307.651-1.83 1.563 1.26-.67 1.411z" fill="currentColor"/></svg>