<svg width="20" height="20" viewBox="0 0 20 20" fill="none" xmlns="http://www.w3.org/2000/svg">
<path d="M9.99992 1.42859C8.23181 1.42859 6.53612 2.13097 5.28587 3.38121C4.03563 4.63145 3.33325 6.32715 3.33325 8.09525C3.33325 13.4921 9.99992 18.5714 9.99992 18.5714C9.99992 18.5714 16.6666 13.4921 16.6666 8.09525C16.6666 6.32715 15.9642 4.63145 14.714 3.38121C13.4637 2.13097 11.768 1.42859 9.99992 1.42859ZM9.99992 11.2699C9.37204 11.2699 8.75826 11.0837 8.2362 10.7348C7.71414 10.386 7.30725 9.89021 7.06697 9.31012C6.82669 8.73004 6.76382 8.09173 6.88631 7.47592C7.00881 6.86011 7.31116 6.29445 7.75514 5.85047C8.19911 5.4065 8.76477 5.10414 9.38058 4.98165C9.9964 4.85916 10.6347 4.92203 11.2148 5.1623C11.7949 5.40258 12.2907 5.80948 12.6395 6.33154C12.9883 6.8536 13.1745 7.46738 13.1745 8.09525C13.1745 8.93721 12.8401 9.74469 12.2447 10.34C11.6493 10.9354 10.8419 11.2699 9.99992 11.2699Z" fill="#141416"/>
</svg>
