<svg xmlns="http://www.w3.org/2000/svg" fill="none" viewBox="0 0 24 24"><path fill="currentColor" d="M8.398 10.25h7.2v3.548h-7.2zm12.556-.965h-.5v5.233h.5c.578 0 1.046-.469 1.046-1.046V10.33c0-.577-.469-1.045-1.046-1.045M18.5 7.072h-1.984v9.905H18.5a1.047 1.047 0 0 0 1.046-1.046V8.117c0-.577-.468-1.045-1.046-1.045M4.46 8.117v7.814c0 .577.468 1.045 1.045 1.046h1.984V7.072H5.505c-.577 0-1.045.468-1.046 1.045zM1.998 10.33v3.142c0 .577.468 1.045 1.046 1.046h.5V9.285h-.5c-.578 0-1.046.468-1.046 1.045"/></svg>