<svg viewBox="0 0 24 24" fill="none" xmlns="http://www.w3.org/2000/svg"><path d="M7.11 17H6v-6.832h2.072l1.998 5.67h.296l1.999-5.67h2.072V17h-1.11v-5.602h-.296L11.033 17H9.404l-1.998-5.602H7.11V17ZM15.522 10.988v-.684l2.072-1.981c.158-.146.271-.278.34-.396a.826.826 0 0 0 .104-.424.72.72 0 0 0-.222-.533c-.148-.146-.345-.218-.592-.218-.267 0-.484.072-.651.218-.158.137-.237.337-.237.601h-.888c0-.446.167-.82.503-1.12.335-.3.76-.451 1.273-.451.513 0 .922.141 1.228.424.316.273.474.633.474 1.08 0 .282-.06.518-.178.71-.108.182-.296.4-.562.656l-1.332 1.298v.068H19v.752h-3.478Z" fill="currentColor"/></svg>
