<svg viewBox="0 0 24 24" fill="none" xmlns="http://www.w3.org/2000/svg"><g clip-path="url(#a)"><path fill="#fff" d="M3 5h18v14H3z"/><path fill-rule="evenodd" clip-rule="evenodd" d="M1.687 1.687C0 3.374 0 6.09 0 11.52v.96c0 5.43 0 8.146 1.687 9.833C3.374 24 6.09 24 11.52 24h.96c5.43 0 8.146 0 9.833-1.687C24 20.626 24 17.91 24 12.48v-.96c0-5.43 0-8.146-1.687-9.833C20.626 0 17.91 0 12.48 0h-.96C6.09 0 3.374 0 1.687 1.687z" fill="url(#b)"/><path d="M7.688 13.578 4.3 12.418s-.404-.173-.274-.564c.027-.08.08-.15.243-.267.75-.55 13.893-5.513 13.893-5.513s.37-.131.59-.044c.054.018.103.05.14.094a.342.342 0 0 1 .078.156c.023.103.033.208.03.314-.002.091-.012.176-.02.309-.08 1.357-2.476 11.484-2.476 11.484s-.143.592-.657.613a.9.9 0 0 1-.37-.067.938.938 0 0 1-.315-.212c-1.008-.91-4.49-3.37-5.26-3.91a.152.152 0 0 1-.063-.11c-.01-.057.048-.128.048-.128s6.064-5.663 6.226-6.257c.012-.046-.035-.07-.098-.049-.403.156-7.385 4.788-8.156 5.3a.354.354 0 0 1-.171.01z" fill="#fff"/></g><defs><linearGradient id="b" x1="12" y1="24" x2="12" y2="0" gradientUnits="userSpaceOnUse"><stop stop-color="#1D93D2"/><stop offset="1" stop-color="#38B0E3"/></linearGradient><clipPath id="a"><path fill="#fff" d="M0 0h24v24H0z"/></clipPath></defs></svg>