<svg xmlns="http://www.w3.org/2000/svg" fill="none"><path fill="currentColor" d="M11.86 11.648c1.271 0 2.373-.456 3.273-1.356.9-.9 1.357-2.002 1.357-3.274 0-1.272-.457-2.374-1.357-3.274-.9-.9-2.002-1.356-3.274-1.356-1.272 0-2.374.456-3.274 1.356-.9.9-1.356 2.002-1.356 3.274 0 1.272.456 2.374 1.356 3.274.9.9 2.002 1.356 3.274 1.356ZM19.961 17.17a11.42 11.42 0 0 0-.156-1.215 9.577 9.577 0 0 0-.298-1.22 6.027 6.027 0 0 0-.503-1.14 4.296 4.296 0 0 0-.757-.987 3.339 3.339 0 0 0-1.087-.683 3.758 3.758 0 0 0-1.389-.251c-.196 0-.386.08-.752.319-.226.147-.49.317-.784.505-.252.16-.593.311-1.014.447a4.03 4.03 0 0 1-1.241.2c-.412 0-.83-.067-1.24-.2-.422-.136-.763-.286-1.015-.446-.291-.187-.555-.357-.784-.506-.366-.239-.556-.32-.753-.32-.5 0-.966.085-1.388.252a3.336 3.336 0 0 0-1.088.684c-.285.273-.54.605-.756.986-.21.367-.378.75-.502 1.14-.12.375-.221.786-.3 1.22A11.4 11.4 0 0 0 4 17.172c-.025.368-.038.75-.038 1.135 0 1.003.319 1.816.948 2.415.621.591 1.443.891 2.443.891h9.257c1 0 1.821-.3 2.443-.89.629-.6.948-1.412.948-2.416 0-.388-.013-.77-.039-1.136Z"/></svg>