<svg xmlns="http://www.w3.org/2000/svg" fill="none" viewBox="0 0 24 24"><path fill="currentColor" d="M11.86 11.648a4.48 4.48 0 0 0 3.273-1.356c.9-.9 1.357-2.002 1.357-3.274s-.457-2.374-1.357-3.274a4.48 4.48 0 0 0-3.274-1.356 4.48 4.48 0 0 0-3.274 1.356 4.48 4.48 0 0 0-1.356 3.274 4.48 4.48 0 0 0 1.356 3.274 4.48 4.48 0 0 0 3.274 1.356Zm8.101 5.522a11 11 0 0 0-.156-1.215 10 10 0 0 0-.298-1.22 6 6 0 0 0-.503-1.14 4.3 4.3 0 0 0-.757-.987 3.3 3.3 0 0 0-1.087-.683 3.8 3.8 0 0 0-1.389-.251c-.196 0-.386.08-.752.319q-.341.222-.784.505c-.252.16-.593.311-1.014.447a4 4 0 0 1-1.241.2 4 4 0 0 1-1.24-.2q-.635-.205-1.015-.446-.438-.281-.784-.506c-.366-.239-.556-.32-.753-.32-.5 0-.966.085-1.388.252a3.3 3.3 0 0 0-1.088.684c-.285.273-.54.605-.756.986-.21.367-.378.75-.502 1.14-.12.375-.221.786-.3 1.22A11 11 0 0 0 4 17.172c-.025.368-.038.75-.038 1.135 0 1.003.319 1.816.948 2.415.621.591 1.443.891 2.443.891h9.257c1 0 1.821-.3 2.443-.89.629-.6.948-1.412.948-2.416 0-.388-.013-.77-.039-1.136Z"/></svg>