<svg viewBox='0 0 24 24' fill="none" xmlns="http://www.w3.org/2000/svg"><path d="M16.987 5c-.63 0-1.234.301-1.618.814l-2.354 3.35c-.25.335-.798.374-1.094.078l-.661-.661a1.353 1.353 0 0 0-.963-.4h-.09c-.364 0-.706.143-.963.4l-.967.967a.318.318 0 0 0 0 .45l5.728 5.728a.317.317 0 0 0 .45 0l.966-.968c.258-.257.4-.599.4-.963v-.09c0-.363-.142-.705-.4-.963l-.66-.66a.725.725 0 0 1 .07-1.088l3.365-2.367c.505-.378.806-.98.806-1.612A2.017 2.017 0 0 0 16.988 5Zm.106 2.545a.637.637 0 1 1 .002-1.274.637.637 0 0 1-.002 1.274ZM8.105 10.728a.318.318 0 0 0-.45 0L5.373 13.01c-.24.24-.373.56-.373.9 0 .34.132.66.373.9l.489.489c.1.1.255.122.38.053l1.12-.623-.622 1.122a.318.318 0 0 0 .053.379l2.398 2.398c.24.24.56.373.9.373.34 0 .66-.133.9-.373l2.282-2.282a.318.318 0 0 0 0-.45l-5.168-5.168Z" fill="#B1B5C4"/><g clip-path="url(#a)"><path d="m4.222 4.222 15.556 15.556M1 12c0 6.075 4.925 11 11 11s11-4.925 11-11S18.075 1 12 1 1 5.925 1 12Z" stroke="#777E91" stroke-linecap="round"/></g><defs><clipPath id="a"><path fill="#fff" d="M0 0h24v24H0z"/></clipPath></defs></svg>