<svg xmlns="http://www.w3.org/2000/svg" width="175" height="43" fill="none" viewBox="0 0 175 43"><path fill="#fff" d="M8.108 32.069a11 11 0 0 1-2.415-.242 9 9 0 0 1-1.888-.623 6.4 6.4 0 0 1-1.449-.888 6.8 6.8 0 0 1-1.014-1.029A6.96 6.96 0 0 1 0 26.487h5.717c.09.302.238.584.435.83.2.231.442.421.715.56.387.184.813.27 1.24.251.462.041.926-.055 1.333-.275a.75.75 0 0 0 .377-.599.7.7 0 0 0-.4-.613 4.4 4.4 0 0 0-1.058-.44c-.44-.13-.966-.26-1.502-.396-.536-.135-1.13-.28-1.705-.449a14 14 0 0 1-1.709-.613 6 6 0 0 1-1.502-.908 4.2 4.2 0 0 1-1.057-1.313 3.95 3.95 0 0 1-.396-1.84A3.7 3.7 0 0 1 .97 18.92a4.7 4.7 0 0 1 1.39-1.541 7.4 7.4 0 0 1 2.275-1.096 10.7 10.7 0 0 1 3.153-.415c.744-.008 1.488.065 2.216.217.605.126 1.193.32 1.753.58.474.22.917.5 1.319.835a6.56 6.56 0 0 1 2.22 3.525H9.59a1.34 1.34 0 0 0-.3-.604 1.6 1.6 0 0 0-.52-.43 1.9 1.9 0 0 0-.89-.183 2.1 2.1 0 0 0-1.149.232.65.65 0 0 0-.328.536c0 .26.232.483.695.598.464.116 1.039.285 1.73.43.69.145 1.448.319 2.24.527a9.3 9.3 0 0 1 2.24.874c.674.365 1.263.869 1.73 1.477.486.678.73 1.5.694 2.333 0 .689-.165 1.368-.482 1.98a4.9 4.9 0 0 1-1.45 1.675c-.728.527-1.546.92-2.414 1.16-1.072.309-2.186.457-3.302.439M20.483 21.03h-4.776v-4.723h15.245v4.723h-4.776v10.604h-5.693zM50.46 16.307h6.37l4.255 7.224v-7.224h5.644v15.327H60.36l-4.25-7.23v7.23h-5.65zM68.691 16.307h13.372v4.38H74.38v1.42h7.683v3.722H74.38v1.425h7.683v4.38H68.69zM40.136 27.225a3.245 3.245 0 1 1 3.38-3.246 3.314 3.314 0 0 1-3.38 3.246m8.46-6.423a7.5 7.5 0 0 0-1.82-2.574 8.7 8.7 0 0 0-2.864-1.729 11.6 11.6 0 0 0-7.557 0 8.7 8.7 0 0 0-2.869 1.73c-.77.723-1.38 1.6-1.791 2.573a8.18 8.18 0 0 0 0 6.326c.419.975 1.04 1.85 1.82 2.569a8.6 8.6 0 0 0 2.869 1.733 11.6 11.6 0 0 0 7.557 0 8.6 8.6 0 0 0 2.863-1.733 7.5 7.5 0 0 0 1.792-2.57 8.18 8.18 0 0 0 0-6.33"/><path fill="#df6d3f" d="M91.74 30.146a4.35 4.35 0 0 0 1.617-.53 73 73 0 0 0 2.873-1.85l8.895-5.795c1.168-.792 1.168-.879.27-1.932-.092-.087-.183-.26-.27-.352a2.46 2.46 0 0 0-2.873-.879 13.4 13.4 0 0 0-5.21 2.728 23.5 23.5 0 0 0-5.211 6.254 5 5 0 0 0-.72 1.931c-.091.353.087.532.628.445m15.453-9.953c.27-.087.357-.352.449-.44 1.347-2.38 2.873-4.582 4.399-6.784 2.158-3.26 4.404-6.427 6.649-9.686.966-1.497 2.067-2.898 2.965-4.404 1.618-2.376 3.414-4.757 5.119-7.133 1.617-2.467 3.505-4.756 5.311-7.132.807-1.144 1.526-2.38 2.415-3.438a10.4 10.4 0 0 1 1.975-1.932c.541-.352.966-.352 1.26 0 .358.353.266.705 0 1.145q-.448.78-.99 1.497c-1.168 1.323-2.153 2.733-3.235 4.143l-1.077 1.318c-2.694 3.434-5.21 6.872-7.726 10.392-1.883 2.641-3.771 5.283-5.66 8.016-2.332 3.08-4.399 6.34-6.644 9.508-1.618 2.202-3.057 4.496-4.491 6.693l-6.76 10.57c-1.797 2.994-3.772 5.901-5.66 8.808a3.8 3.8 0 0 1-.806 1.145.61.61 0 0 1-.898.087c-.27-.174-.18-.527-.092-.792.54-.705 1.082-1.41 1.53-2.115 1.45-2.376 2.898-4.83 4.4-7.22a480 480 0 0 0 5.567-9.073c.287-.287.476-.657.541-1.058a113 113 0 0 0-3.322 2.381c-2.337 1.67-4.583 3.346-6.92 5.017q-1.159.787-2.414 1.41a4 4 0 0 1-1.347.44c-1.705.265-2.966-.792-2.874-2.463.093-.81.273-1.609.536-2.38a16.13 16.13 0 0 1 5.312-6.867 16.7 16.7 0 0 1 5.032-2.82 8.1 8.1 0 0 1 3.23-.353 3.6 3.6 0 0 1 2.965 1.589c.449.613.811 1.231 1.261 1.931M123.9 21.512c-.179-.174 0-.353.087-.614.362-1.144-.179-1.85-1.347-2.028a4.5 4.5 0 0 0-2.415.531 15.4 15.4 0 0 0-5.567 4.578c-.898 1.318-1.71 2.728-1.797 4.317 0 .174-.091.348-.091.527.091 1.323.54 1.762 1.888 1.762a5.5 5.5 0 0 0 2.414-.618c1.705-.792 3.322-1.763 4.221-3.52.091-.179.27-.353.27-.531.27-.527.092-.792-.536-.88h-1.449a2.1 2.1 0 0 1-.719-.178c-.536-.26-.628-.705-.092-1.058a2.77 2.77 0 0 1 3.148-.087c.383.302.861.458 1.348.44 4.491-.087 8.89-.087 13.294-.26 1.255 0 2.414-.093 3.684-.093.266 0 .715-.087.715.353.091.353-.449.353-.715.353a6.3 6.3 0 0 1-1.26.091l-8.77.261c-2.153.092-4.312.266-6.557.179a.886.886 0 0 0-.99.705 5.9 5.9 0 0 1-1.347 2.554 13.3 13.3 0 0 1-4.042 2.994c-1.449.613-3.052.966-4.67.44a3.22 3.22 0 0 1-2.337-2.29c-.628-2.288-.087-4.403 1.261-6.34a11.8 11.8 0 0 1 3.322-3.346c1.796-1.145 3.593-2.028 5.751-2.294a4.35 4.35 0 0 1 3.501.966 2.1 2.1 0 0 1 .675 1.54 2.1 2.1 0 0 1-.675 1.54c0 .088-.092 0-.179 0"/><path fill="#df6d3f" d="M157.675 20.9a11.4 11.4 0 0 0-3.414 1.318 44 44 0 0 0-10.686 7.75c-.72.705-1.082.884-1.449.618-.72-.53-.27-1.057-.092-1.583q1.17-2.581 2.608-5.023a41 41 0 0 0 2.603-4.756c.178-.266.449-.613.178-.966-.265-.265-.628.087-.966.174a24.5 24.5 0 0 0-4.939 2.728 70.5 70.5 0 0 0-14.733 12.42c-.29.262-.506.595-.628.966a.73.73 0 0 1-.811.348.67.67 0 0 1-.45-.792c.186-.663.426-1.31.72-1.932 1.449-2.641 3.057-5.196 4.67-7.837 1.26-2.028 2.515-4.051 3.954-5.988.536-.705 1.077-1.323 1.618-2.028.239-.281.549-.493.898-.613a1.19 1.19 0 0 1 1.169.352.898.898 0 0 1 .178 1.053 7.5 7.5 0 0 1-.898 1.41c-1.617 2.202-3.327 4.404-4.94 6.606a25 25 0 0 0-1.709 2.554 3.4 3.4 0 0 0 1.077-.878 79 79 0 0 1 12.217-9.426 12.2 12.2 0 0 1 3.593-1.671 2.77 2.77 0 0 1 2.066.174 2.206 2.206 0 0 1 1.261 2.641 6.24 6.24 0 0 1-1.169 2.468c-.898 1.23-1.888 2.554-2.786 3.863-.179.265-.358.618-.628.965a.61.61 0 0 0 .628-.265 47.6 47.6 0 0 1 8.354-5.635c.627-.266 1.26-.527 1.796-.706a2.9 2.9 0 0 1 1.169-.265c1.617-.087 2.516 1.058 2.245 2.554-.272.999-.695 1.95-1.255 2.82-.449.88-.899 1.763-1.348 2.555-.091.265-.178.526-.27.879-.271.966.092 1.497 1.169 1.497a5.8 5.8 0 0 0 2.414-.353c4.312-1.41 8.533-3.08 12.758-4.93q.372-.146.715-.353c.091 0 .27-.087.362.087.178.179 0 .353-.092.44-.455.29-.941.526-1.449.705a101 101 0 0 1-12.4 4.935 7.4 7.4 0 0 1-2.782.526 2.64 2.64 0 0 1-2.694-2.467 4.5 4.5 0 0 1 .357-2.202 15.6 15.6 0 0 1 1.347-3.347c.293-.41.45-.901.449-1.405"/></svg>