<svg xmlns="http://www.w3.org/2000/svg" width="143" height="52" fill="none" viewBox="0 0 143 52"><path fill="#141416" d="M70.805 32.226h.598a.27.27 0 0 0 .3-.266.27.27 0 0 0-.3-.266h-.598zm.579-.926a.69.69 0 0 1 .752.646.62.62 0 0 1-.346.568l.307.524h-.492l-.221-.418h-.58v.418h-.452V31.3zm-.22 2.313a1.394 1.394 0 0 0 1.465-1.414 1.42 1.42 0 0 0-1.466-1.407 1.41 1.41 0 1 0 0 2.82m0-3.293a1.904 1.904 0 0 1 1.969 1.886 1.97 1.97 0 1 1-1.97-1.887M6.614 43.293a9 9 0 0 1-1.97-.197 7.4 7.4 0 0 1-1.54-.508 5.3 5.3 0 0 1-1.182-.725 5.5 5.5 0 0 1-.827-.839A5.7 5.7 0 0 1 0 38.74h4.664c.074.247.194.477.355.678.163.189.36.344.583.457.315.15.663.22 1.012.205.377.033.755-.045 1.087-.225a.61.61 0 0 0 .308-.488.57.57 0 0 0-.327-.5 3.6 3.6 0 0 0-.863-.36c-.358-.105-.788-.212-1.225-.322s-.922-.229-1.39-.366a11 11 0 0 1-1.395-.5 4.8 4.8 0 0 1-1.225-.741 3.4 3.4 0 0 1-.863-1.072 3.2 3.2 0 0 1-.323-1.5c.009-.505.144-1 .394-1.439.28-.498.667-.928 1.134-1.256a6.1 6.1 0 0 1 1.856-.894 8.7 8.7 0 0 1 2.572-.34 8.5 8.5 0 0 1 1.808.178c.493.103.973.261 1.43.473q.582.271 1.076.681a5.35 5.35 0 0 1 1.812 2.876H7.824a1.1 1.1 0 0 0-.245-.492 1.3 1.3 0 0 0-.425-.351 1.54 1.54 0 0 0-.725-.15 1.7 1.7 0 0 0-.938.19.53.53 0 0 0-.267.437c0 .212.189.394.567.488.378.095.847.233 1.41.35.563.119 1.182.26 1.828.43a7.6 7.6 0 0 1 1.828.713c.55.298 1.03.71 1.41 1.206.397.552.597 1.222.567 1.902 0 .562-.135 1.116-.393 1.615a4 4 0 0 1-1.182 1.367c-.595.43-1.262.75-1.97.946a9.2 9.2 0 0 1-2.695.358M16.709 34.287h-3.896v-3.852h12.436v3.852h-3.896v8.651h-4.645zM41.164 30.435h5.196l3.47 5.893v-5.893h4.606v12.503H49.24l-3.467-5.897v5.897h-4.609zM56.04 30.435h10.907v3.573H60.68v1.158h6.267v3.037H60.68v1.162h6.267v3.573H56.04zM32.741 39.341a2.647 2.647 0 1 1 2.758-2.647 2.703 2.703 0 0 1-2.758 2.647m6.902-5.24a6.15 6.15 0 0 0-1.485-2.099 7.1 7.1 0 0 0-2.337-1.41 9.46 9.46 0 0 0-6.165 0 7.1 7.1 0 0 0-2.34 1.41 6.2 6.2 0 0 0-1.461 2.1 6.67 6.67 0 0 0 0 5.16c.342.796.848 1.51 1.485 2.096.68.62 1.475 1.1 2.34 1.414a9.45 9.45 0 0 0 6.165 0 7 7 0 0 0 2.336-1.414 6.1 6.1 0 0 0 1.462-2.096 6.67 6.67 0 0 0 0-5.164"/><path fill="#b2461a" d="M74.84 41.725a3.55 3.55 0 0 0 1.32-.434 59 59 0 0 0 2.344-1.508l7.256-4.728c.953-.646.953-.717.22-1.575-.074-.071-.15-.213-.22-.288a2.005 2.005 0 0 0-2.344-.717 10.95 10.95 0 0 0-4.25 2.226 19.2 19.2 0 0 0-4.251 5.101 4.1 4.1 0 0 0-.587 1.576c-.075.288.07.433.512.362m12.606-8.119c.22-.07.291-.287.366-.358 1.1-1.942 2.344-3.738 3.59-5.535 1.76-2.659 3.592-5.243 5.424-7.902.787-1.221 1.686-2.364 2.418-3.593 1.32-1.938 2.785-3.88 4.176-5.818 1.32-2.013 2.86-3.88 4.333-5.819.658-.933 1.245-1.942 1.97-2.805a8.5 8.5 0 0 1 1.611-1.575c.441-.288.788-.288 1.028 0 .292.287.217.575 0 .933a12 12 0 0 1-.807 1.222c-.954 1.079-1.757 2.23-2.64 3.38l-.878 1.075c-2.198 2.8-4.251 5.606-6.303 8.477-1.536 2.155-3.077 4.31-4.617 6.54-1.903 2.513-3.589 5.172-5.42 7.756-1.32 1.797-2.494 3.668-3.664 5.46l-5.515 8.624c-1.466 2.442-3.077 4.813-4.617 7.185-.159.35-.382.666-.658.933a.5.5 0 0 1-.733.071c-.22-.141-.145-.429-.075-.646.442-.575.883-1.15 1.25-1.725 1.181-1.938 2.363-3.94 3.588-5.89 1.54-2.442 3.077-4.959 4.542-7.401.234-.235.389-.536.441-.863-.953.65-1.832 1.296-2.71 1.942-1.907 1.363-3.739 2.73-5.645 4.093q-.946.642-1.97 1.15a3.2 3.2 0 0 1-1.099.359c-1.39.216-2.419-.646-2.344-2.01a9.3 9.3 0 0 1 .438-1.941 13.16 13.16 0 0 1 4.333-5.602c1.224-1 2.613-1.779 4.105-2.3a6.6 6.6 0 0 1 2.635-.288 2.94 2.94 0 0 1 2.419 1.296c.366.5.662 1.004 1.028 1.575M101.075 34.68c-.145-.141 0-.287.071-.5.296-.933-.145-1.508-1.099-1.654a3.65 3.65 0 0 0-1.97.433 12.6 12.6 0 0 0-4.541 3.735c-.733 1.075-1.395 2.225-1.466 3.521 0 .142-.075.284-.075.43.075 1.08.441 1.438 1.54 1.438a4.5 4.5 0 0 0 1.97-.505c1.39-.646 2.71-1.437 3.443-2.871.075-.146.22-.288.22-.434.221-.43.076-.646-.437-.717H97.55a1.7 1.7 0 0 1-.587-.145c-.437-.213-.512-.576-.075-.863a2.26 2.26 0 0 1 2.568-.071c.313.246.702.373 1.099.358 3.664-.07 7.253-.07 10.845-.212 1.025 0 1.97-.075 3.006-.075.217 0 .583-.071.583.287.075.288-.366.288-.583.288q-.51.09-1.028.075l-7.154.212c-1.757.075-3.518.217-5.349.146a.726.726 0 0 0-.808.575 4.8 4.8 0 0 1-1.1 2.084 10.9 10.9 0 0 1-3.296 2.443c-1.182.5-2.49.788-3.81.358a2.62 2.62 0 0 1-1.906-1.867c-.513-1.867-.071-3.593 1.028-5.172a9.7 9.7 0 0 1 2.71-2.73c1.466-.934 2.931-1.655 4.692-1.872a3.54 3.54 0 0 1 2.856.788c.173.16.312.355.407.571a1.72 1.72 0 0 1 0 1.372c-.095.216-.234.41-.407.57 0 .072-.075 0-.146 0"/><path fill="#b2461a" d="M128.63 34.181c-.98.207-1.921.57-2.785 1.076a36 36 0 0 0-8.718 6.322c-.587.575-.883.721-1.182.505-.587-.434-.221-.863-.075-1.293a44 44 0 0 1 2.127-4.096 33 33 0 0 0 2.124-3.88c.145-.217.366-.501.145-.789-.216-.216-.512.071-.787.142a20 20 0 0 0-4.03 2.226 57.5 57.5 0 0 0-12.019 10.132 1.8 1.8 0 0 0-.512.788.6.6 0 0 1-.662.283.55.55 0 0 1-.367-.646c.151-.54.348-1.068.587-1.575 1.182-2.155 2.494-4.24 3.81-6.394 1.028-1.654 2.052-3.305 3.226-4.885.437-.575.878-1.08 1.32-1.654a1.7 1.7 0 0 1 .732-.5.97.97 0 0 1 .954.287.73.73 0 0 1 .145.859 6.2 6.2 0 0 1-.732 1.15c-1.32 1.797-2.714 3.593-4.03 5.39a21 21 0 0 0-1.395 2.083c.34-.176.639-.42.879-.717a64.4 64.4 0 0 1 9.966-7.69 10 10 0 0 1 2.931-1.363 2.26 2.26 0 0 1 1.686.142 1.793 1.793 0 0 1 1.028 2.155 5.1 5.1 0 0 1-.953 2.013c-.733 1.005-1.54 2.084-2.273 3.152-.146.216-.291.504-.512.787a.5.5 0 0 0 .512-.216 39 39 0 0 1 6.815-4.597c.512-.217 1.028-.43 1.466-.575.299-.138.624-.212.953-.217 1.32-.071 2.052.863 1.832 2.084a8.3 8.3 0 0 1-1.025 2.3c-.366.717-.732 1.438-1.099 2.084a9 9 0 0 0-.22.717c-.221.788.075 1.221.953 1.221a4.7 4.7 0 0 0 1.97-.287c3.518-1.15 6.961-2.514 10.408-4.022q.304-.12.583-.288c.074 0 .22-.07.295.071.146.146 0 .288-.075.358q-.558.356-1.182.576a82.5 82.5 0 0 1-10.116 4.026 6.1 6.1 0 0 1-2.269.43 2.154 2.154 0 0 1-2.198-2.014 3.7 3.7 0 0 1 .291-1.796c.26-.95.629-1.866 1.1-2.73.238-.335.366-.736.366-1.147"/></svg>