<svg width="175" height="47" viewBox="0 0 175 47" fill="none" xmlns="http://www.w3.org/2000/svg">
<path d="M8.10769 36.0685C7.29645 36.0768 6.48677 35.9959 5.69325 35.8271C5.04305 35.6889 4.40991 35.48 3.80516 35.2041C3.28515 34.9732 2.79802 34.6745 2.35649 34.3156C1.98271 34.01 1.64275 33.6651 1.34243 33.2871C0.689656 32.4665 0.23075 31.5091 0 30.4863H5.71739C5.80729 30.7886 5.95488 31.0707 6.15199 31.3169C6.35173 31.5481 6.59445 31.7383 6.86667 31.877C7.25362 32.0608 7.67971 32.1471 8.10769 32.1281C8.56933 32.1692 9.03284 32.0734 9.44046 31.8529C9.54746 31.7915 9.63777 31.7049 9.70344 31.6005C9.76911 31.4961 9.80815 31.3771 9.81711 31.2541C9.81291 31.125 9.77331 30.9995 9.70263 30.8913C9.63194 30.7832 9.5329 30.6965 9.41631 30.6408C9.08424 30.4493 8.72878 30.3016 8.35879 30.2014C7.91936 30.071 7.39301 29.9406 6.85701 29.8054C6.321 29.6702 5.72705 29.5254 5.15241 29.3563C4.56984 29.1894 3.99881 28.9846 3.44299 28.7431C2.90014 28.5166 2.39401 28.2107 1.94121 27.8352C1.50307 27.4739 1.14323 27.027 0.883686 26.5218C0.605399 25.9494 0.469555 25.3182 0.487718 24.682C0.498729 24.0633 0.664758 23.4573 0.970606 22.9195C1.31316 22.3085 1.7884 21.7821 2.36132 21.379C3.05148 20.8868 3.82069 20.5161 4.63572 20.2829C5.66014 19.9876 6.72304 19.8476 7.78898 19.8676C8.53345 19.8604 9.27654 19.9332 10.0054 20.0849C10.6099 20.2107 11.198 20.4051 11.7583 20.6644C12.2317 20.8852 12.6748 21.1659 13.0766 21.4998C14.1803 22.4023 14.96 23.6397 15.2979 25.0248H9.59015C9.54329 24.8015 9.44025 24.5937 9.29076 24.4212C9.14871 24.2433 8.97108 24.0969 8.76924 23.9915C8.49245 23.8588 8.18743 23.7958 7.88073 23.808C7.4834 23.7746 7.08479 23.855 6.73146 24.0398C6.63568 24.0938 6.55527 24.1714 6.49782 24.2652C6.44036 24.359 6.40776 24.4659 6.40309 24.5758C6.40309 24.8365 6.63488 25.0587 7.09845 25.1745C7.56202 25.2904 8.13666 25.4594 8.82719 25.6043C9.51772 25.7492 10.2759 25.923 11.0678 26.1307C11.8494 26.3236 12.6026 26.6174 13.3084 27.0047C13.982 27.3703 14.5711 27.8738 15.0371 28.4823C15.5237 29.1599 15.7685 29.9813 15.7325 30.8147C15.7324 31.5038 15.5668 32.1828 15.2496 32.7945C14.9002 33.4558 14.4048 34.0288 13.8009 34.4701C13.0716 34.9972 12.2539 35.3897 11.3865 35.6291C10.3135 35.9389 9.20025 36.087 8.08354 36.0685" fill="white"/>
<path d="M20.4789 25.0295H15.7031V20.3069H30.9479V25.0295H26.1721V35.6337H20.4789V25.0295Z" fill="white"/>
<path d="M50.4609 20.3069H56.8302L61.0845 27.5309V20.3069H66.7294V35.6337H60.3601L56.1107 28.4049V35.6337H50.4609V20.3069Z" fill="white"/>
<path d="M68.6953 20.3069H82.0665V24.6867H74.3837V26.1064H82.0665V29.8294H74.3837V31.254H82.0665V35.6337H68.6953V20.3069Z" fill="white"/>
<path d="M40.1318 31.2245C39.4964 31.198 38.8828 30.9854 38.3673 30.6131C37.8517 30.2408 37.4569 29.7252 37.2319 29.1304C37.0069 28.5356 36.9616 27.8878 37.1017 27.2675C37.2418 26.6472 37.561 26.0818 38.0197 25.6414C38.4785 25.201 39.0565 24.905 39.682 24.7904C40.3075 24.6758 40.9529 24.7475 41.538 24.9965C42.1232 25.2456 42.6222 25.6611 42.9731 26.1915C43.3241 26.7218 43.5115 27.3435 43.512 27.9794C43.5032 28.4145 43.4088 28.8435 43.2342 29.2421C43.0595 29.6406 42.8081 30.0009 42.4942 30.3022C42.1803 30.6036 41.8101 30.8401 41.4047 30.9984C40.9994 31.1566 40.5668 31.2334 40.1318 31.2245ZM48.592 24.802C48.1735 23.8253 47.5531 22.9482 46.7715 22.2283C45.9379 21.472 44.9654 20.8849 43.908 20.4995C41.4597 19.6551 38.7991 19.6551 36.3508 20.4995C35.2916 20.8844 34.3174 21.4715 33.4824 22.2283C32.7128 22.9523 32.1027 23.8289 31.6909 24.802C31.271 25.8037 31.0547 26.8789 31.0547 27.965C31.0547 29.0511 31.271 30.1263 31.6909 31.1279C32.11 32.1029 32.7304 32.9783 33.5114 33.6968C34.3446 34.4572 35.3192 35.0462 36.3798 35.4304C38.8281 36.2748 41.4887 36.2748 43.937 35.4304C44.9955 35.0451 45.9683 34.4562 46.8005 33.6968C47.5725 32.9767 48.1831 32.1012 48.592 31.1279C49.0126 30.1256 49.2292 29.0495 49.2292 27.9625C49.2292 26.8756 49.0126 25.7995 48.592 24.7972" fill="white"/>
<path d="M91.7391 34.1463C92.3081 34.0776 92.8579 33.8971 93.3568 33.6151C94.3467 33.0018 95.3318 32.3837 96.23 31.7656L105.125 25.971C106.293 25.1791 106.293 25.0921 105.395 24.0394C105.303 23.9525 105.212 23.7787 105.125 23.6869C104.81 23.2433 104.358 22.9164 103.838 22.7574C103.318 22.5983 102.76 22.6162 102.252 22.8081C100.334 23.3212 98.555 24.253 97.0412 25.5364C94.9545 27.3025 93.1914 29.4186 91.8309 31.7898C91.4599 32.3769 91.2149 33.0346 91.1114 33.7213C91.0196 34.0738 91.1983 34.2525 91.7391 34.1656M107.192 24.2133C107.462 24.1264 107.549 23.8608 107.641 23.7738C108.988 21.3932 110.514 19.1912 112.04 16.9893C114.198 13.7298 116.444 10.562 118.689 7.30254C119.655 5.80559 120.756 4.40522 121.654 2.89861C123.272 0.522797 125.068 -1.85785 126.773 -4.23366C128.39 -6.70121 130.278 -8.9901 132.084 -11.3659C132.891 -12.5104 133.61 -13.7465 134.499 -14.8041C135.069 -15.5327 135.733 -16.1823 136.474 -16.7356C137.015 -17.0881 137.44 -17.0881 137.734 -16.7356C138.092 -16.3831 138 -16.0306 137.734 -15.5912C137.436 -15.0719 137.105 -14.572 136.744 -14.0942C135.576 -12.7711 134.591 -11.3611 133.509 -9.95105L132.432 -8.63276C129.738 -5.19943 127.222 -1.76127 124.706 1.75898C122.823 4.40038 120.935 7.04178 119.046 9.77493C116.714 12.8558 114.647 16.1152 112.402 19.283C110.784 21.485 109.345 23.7787 107.911 25.9758L101.151 36.5462C99.3543 39.5401 97.3793 42.4471 95.4912 45.3541C95.2964 45.7827 95.0229 46.171 94.6847 46.4985C94.6336 46.5662 94.5689 46.6225 94.4949 46.6639C94.4209 46.7052 94.3391 46.7308 94.2547 46.739C94.1703 46.7472 94.0851 46.7377 94.0045 46.7113C93.924 46.6849 93.8497 46.642 93.7866 46.5855C93.5161 46.4116 93.6079 46.0591 93.6948 45.7935C94.2356 45.0885 94.7765 44.3835 95.2256 43.6785C96.6742 41.3027 98.1229 38.8496 99.6247 36.4593C101.513 33.4654 103.396 30.3798 105.192 27.3858C105.479 27.0989 105.668 26.7289 105.733 26.3283C104.565 27.1251 103.488 27.917 102.411 28.709C100.074 30.3797 97.8283 32.0554 95.4912 33.7262C94.7193 34.2505 93.9127 34.7216 93.0767 35.1362C92.6576 35.3623 92.2013 35.5111 91.7295 35.5756C90.0249 35.8412 88.7645 34.7837 88.8563 33.1129C88.9494 32.3025 89.1291 31.5044 89.3923 30.7323C90.5022 28.001 92.3393 25.6262 94.704 23.8656C96.2044 22.6399 97.9072 21.6856 99.7357 21.0455C100.778 20.7121 101.877 20.5922 102.966 20.693C103.552 20.6966 104.129 20.8432 104.646 21.1201C105.162 21.3969 105.604 21.7957 105.931 22.2817C106.38 22.895 106.742 23.5131 107.192 24.2133Z" fill="#DF6D3F"/>
<path d="M123.9 25.5116C123.721 25.3377 123.9 25.1591 123.987 24.8983C124.349 23.7539 123.808 23.0488 122.64 22.8702C121.801 22.8171 120.964 23.0012 120.225 23.4013C118.034 24.4658 116.126 26.0346 114.658 27.9791C113.76 29.2974 112.948 30.7074 112.861 32.2961C112.861 32.47 112.77 32.6438 112.77 32.8225C112.861 34.1456 113.31 34.585 114.658 34.585C115.499 34.5673 116.326 34.3558 117.072 33.9669C118.777 33.175 120.394 32.2044 121.293 30.4467C121.384 30.268 121.563 30.0942 121.563 29.9155C121.833 29.3892 121.655 29.1236 121.027 29.0367H119.578C119.33 29.0208 119.086 28.9603 118.859 28.858C118.323 28.5972 118.231 28.153 118.767 27.8004C119.221 27.4675 119.765 27.2808 120.328 27.2653C120.89 27.2498 121.444 27.4061 121.915 27.7135C122.298 28.0153 122.776 28.1711 123.263 28.153C127.754 28.066 132.153 28.066 136.557 27.8922C137.812 27.8922 138.971 27.8004 140.241 27.8004C140.507 27.8004 140.956 27.7135 140.956 28.153C141.047 28.5055 140.507 28.5055 140.241 28.5055C139.825 28.5784 139.403 28.6091 138.981 28.5972L130.211 28.858C128.058 28.9497 125.899 29.1236 123.654 29.0367C123.43 29.0064 123.203 29.0625 123.02 29.1934C122.836 29.3244 122.709 29.5204 122.664 29.7417C122.434 30.692 121.971 31.57 121.317 32.2961C120.172 33.5416 118.8 34.5577 117.275 35.29C115.826 35.9033 114.223 36.2558 112.605 35.7295C112.046 35.5924 111.535 35.3076 111.123 34.9049C110.712 34.5023 110.417 33.9965 110.268 33.4406C109.64 31.1517 110.181 29.0366 111.529 27.1003C112.401 25.7735 113.53 24.6355 114.851 23.7539C116.647 22.6094 118.444 21.7257 120.602 21.4601C121.221 21.3591 121.854 21.3931 122.458 21.5598C123.062 21.7265 123.624 22.022 124.103 22.4259C124.316 22.6222 124.485 22.8604 124.602 23.1255C124.718 23.3906 124.778 23.6769 124.778 23.9663C124.778 24.2558 124.718 24.5421 124.602 24.8072C124.485 25.0723 124.316 25.3105 124.103 25.5067C124.103 25.5936 124.011 25.5067 123.924 25.5067" fill="#DF6D3F"/>
<path d="M157.671 24.8996C156.47 25.1528 155.317 25.5979 154.257 26.2179C150.326 28.2502 146.723 30.8629 143.571 33.9683C142.851 34.6733 142.489 34.852 142.122 34.5864C141.403 34.0552 141.852 33.5288 142.03 33.0025C142.81 31.2834 143.68 29.607 144.638 27.9805C145.611 26.455 146.48 24.8659 147.241 23.224C147.419 22.9584 147.69 22.6107 147.419 22.2582C147.154 21.9926 146.792 22.3451 146.454 22.4321C144.707 23.148 143.05 24.0635 141.514 25.1604C136.057 28.6065 131.1 32.7855 126.781 37.5803C126.491 37.8423 126.275 38.1751 126.153 38.546C126.074 38.6841 125.952 38.7927 125.805 38.8554C125.659 38.9182 125.496 38.9316 125.342 38.8937C125.181 38.8423 125.046 38.7323 124.962 38.5855C124.879 38.4388 124.854 38.2661 124.893 38.1018C125.078 37.4389 125.318 36.7927 125.612 36.1702C127.061 33.5288 128.669 30.9744 130.282 28.333C131.542 26.3048 132.797 24.2815 134.236 22.3452C134.772 21.6401 135.313 21.022 135.854 20.317C136.093 20.0357 136.403 19.8239 136.752 19.7038C136.961 19.6513 137.18 19.6564 137.385 19.7184C137.591 19.7805 137.776 19.8973 137.921 20.0563C138.059 20.1895 138.151 20.3637 138.184 20.5532C138.216 20.7427 138.186 20.9375 138.1 21.109C137.853 21.6105 137.552 22.0834 137.201 22.519C135.584 24.721 133.874 26.9229 132.261 29.1249C131.64 29.941 131.07 30.794 130.552 31.6794C130.968 31.4642 131.335 31.1649 131.629 30.8005C135.384 27.2672 139.476 24.1102 143.846 21.3745C144.944 20.6256 146.158 20.0612 147.439 19.7038C148.124 19.4921 148.865 19.5544 149.505 19.8776C150.003 20.087 150.406 20.4717 150.638 20.9586C150.87 21.4455 150.916 22.0008 150.766 22.519C150.563 23.4178 150.164 24.2606 149.597 24.9865C148.699 26.2179 147.709 27.541 146.811 28.8497C146.632 29.1152 146.454 29.4677 146.183 29.8154C146.302 29.8382 146.426 29.8252 146.537 29.7779C146.649 29.7306 146.744 29.6512 146.811 29.5498C149.389 27.3815 152.189 25.4925 155.165 23.9145C155.793 23.6489 156.425 23.3882 156.961 23.2095C157.328 23.0405 157.726 22.9501 158.13 22.9439C159.747 22.857 160.646 24.0015 160.375 25.4984C160.103 26.497 159.68 27.448 159.12 28.3185C158.671 29.1973 158.222 30.081 157.772 30.873C157.681 31.1385 157.594 31.3993 157.502 31.7518C157.232 32.7176 157.594 33.2488 158.671 33.2488C159.491 33.304 160.314 33.1838 161.085 32.8963C165.397 31.4862 169.618 29.8154 173.843 27.966C174.091 27.8686 174.33 27.7507 174.558 27.6135C174.649 27.6135 174.828 27.5265 174.92 27.7004C175.098 27.879 174.92 28.0529 174.828 28.1398C174.374 28.4292 173.888 28.6657 173.379 28.8448C169.359 30.7609 165.216 32.4095 160.979 33.7799C160.094 34.1319 159.15 34.3105 158.197 34.3063C157.517 34.3214 156.857 34.0733 156.355 33.6135C155.853 33.1538 155.547 32.518 155.503 31.8387C155.437 31.0864 155.56 30.3295 155.86 29.6368C156.178 28.473 156.631 27.35 157.207 26.2904C157.5 25.8803 157.657 25.3889 157.657 24.8851" fill="#DF6D3F"/>
</svg>
