<svg width="154" height="16" viewBox="0 0 154 16" fill="none" xmlns="http://www.w3.org/2000/svg">
<path d="M8.05423 15.9842C7.24103 15.9937 6.42929 15.9132 5.63409 15.7441C4.98782 15.6062 4.35824 15.4001 3.75606 15.1296C3.24914 14.8996 2.77414 14.6059 2.34271 14.2558C1.9711 13.9535 1.63354 13.6123 1.33592 13.238C0.685765 12.4299 0.228982 11.486 0 10.4774H5.65829C5.74537 10.7758 5.89003 11.0546 6.08424 11.2984C6.28509 11.525 6.52839 11.7109 6.80062 11.8457C7.18314 12.0289 7.60568 12.1148 8.03004 12.0953C8.489 12.1343 8.94953 12.0409 9.35627 11.8265C9.46208 11.7643 9.55122 11.6777 9.6161 11.5741C9.68098 11.4704 9.7197 11.3528 9.72898 11.2311C9.72488 11.104 9.68572 10.9803 9.61574 10.8737C9.54577 10.767 9.44765 10.6814 9.33207 10.6262C9.00142 10.4394 8.64859 10.2943 8.28174 10.1941C7.84128 10.0645 7.34755 9.93485 6.78608 9.80523C6.22461 9.6756 5.66314 9.53157 5.09198 9.36353C4.51287 9.19918 3.94532 8.9971 3.39304 8.7586C2.85456 8.53317 2.35231 8.23069 1.90226 7.8608C1.46492 7.50667 1.10572 7.06706 0.847049 6.56931C0.570387 6.00455 0.434307 5.38222 0.450172 4.75452C0.460727 4.14391 0.627263 3.54594 0.9342 3.01654C1.2739 2.41357 1.74521 1.89358 2.31367 1.49461C3.00242 1.01121 3.76816 0.646051 4.57892 0.414371C5.5963 0.123058 6.65181 -0.0161035 7.71059 0.00148022C8.45204 -0.00622919 9.19213 0.0662126 9.91776 0.217526C10.5182 0.343232 11.1026 0.534856 11.6602 0.788852C12.1304 1.00698 12.5711 1.28279 12.972 1.60983C13.3158 1.89877 13.6303 2.22037 13.911 2.57004C14.5122 3.3168 14.9446 4.18292 15.1791 5.1098H9.5257C9.4822 4.88986 9.38215 4.68478 9.23526 4.51447C9.09258 4.33906 8.91452 4.19516 8.7125 4.09198C8.43836 3.96051 8.13588 3.89785 7.8316 3.90954C7.43704 3.87724 7.04125 3.95542 6.68927 4.13519C6.59364 4.18817 6.51324 4.26448 6.45565 4.35689C6.39805 4.44931 6.36517 4.55477 6.36013 4.6633C6.36013 4.92255 6.58762 5.1434 7.04745 5.25863C7.50727 5.37386 8.08327 5.53709 8.77059 5.68112C9.4579 5.82516 10.1985 5.99799 10.9971 6.19964C11.7748 6.39283 12.5246 6.68321 13.2285 7.06382C13.8955 7.42087 14.4806 7.91131 14.9468 8.50414C15.4279 9.1733 15.6698 9.98272 15.6341 10.8038C15.6342 11.4844 15.4681 12.1548 15.1501 12.7579C14.8009 13.4121 14.3039 13.9773 13.698 14.4094C12.9821 14.9303 12.1792 15.322 11.3263 15.5665C10.2599 15.8705 9.15396 16.0162 8.04454 15.9986" fill="white"/>
<path d="M20.3528 5.09061H15.5996V0.433594H30.7642V5.09061H26.011V15.5473H20.3528V5.09061Z" fill="white"/>
<path d="M50.1641 0.433594H56.5L60.7304 7.55835V0.433594H66.3403V15.5473H60.0044L55.7836 8.42254V15.5473H50.1641V0.433594Z" fill="white"/>
<path d="M68.291 0.433594H81.5873V4.74974H73.9493V6.15645H81.5873V9.82445H73.9493V11.2312H81.5873V15.5473H68.291V0.433594Z" fill="white"/>
<path d="M39.8824 11.2056C39.2499 11.1811 38.6385 10.9727 38.1244 10.6063C37.6103 10.2399 37.2161 9.73164 36.991 9.14476C36.7658 8.55789 36.7195 7.91831 36.858 7.30556C36.9964 6.69282 37.3133 6.13396 37.7695 5.69851C38.2256 5.26306 38.8007 4.97024 39.4233 4.85646C40.0459 4.74268 40.6885 4.81297 41.2711 5.05859C41.8537 5.3042 42.3507 5.7143 42.7002 6.23787C43.0497 6.76144 43.2363 7.37538 43.2368 8.00332C43.2286 8.43207 43.1353 8.85502 42.9623 9.24801C42.7893 9.64101 42.5399 9.99634 42.2284 10.2937C41.9169 10.5911 41.5494 10.8247 41.1469 10.9812C40.7444 11.1376 40.3147 11.2139 39.8824 11.2056ZM48.3045 4.86823C47.8864 3.90704 47.2697 3.04349 46.4943 2.33328C45.6632 1.58869 44.6953 1.01001 43.6434 0.628904C41.2107 -0.209635 38.5639 -0.209635 36.1312 0.628904C35.078 1.00725 34.1095 1.58624 33.2803 2.33328C32.5019 3.04089 31.8848 3.90512 31.47 4.86823C31.0515 5.85627 30.8359 6.91721 30.8359 7.98892C30.8359 9.06063 31.0515 10.1216 31.47 11.1096C31.8834 12.0749 32.5007 12.9409 33.2803 13.6494C34.1095 14.3964 35.078 14.9754 36.1312 15.3537C38.565 16.1859 41.2096 16.1859 43.6434 15.3537C44.6953 14.9726 45.6632 14.3939 46.4943 13.6494C47.2709 12.9383 47.8877 12.0729 48.3045 11.1096C48.7199 10.1208 48.9338 9.06015 48.9338 7.98892C48.9338 6.91769 48.7199 5.85706 48.3045 4.86823Z" fill="white"/>
<path d="M93.9763 9.4L99.7457 15H98.2441L92.4747 9.4H90.9335V15H89.748V1H95.4779C96.2287 1 96.9071 1.18 97.513 1.54C98.1189 1.9 98.5931 2.4 98.9356 3.04C99.2781 3.66667 99.4493 4.38667 99.4493 5.2C99.4493 6.01333 99.2781 6.74 98.9356 7.38C98.5931 8.00667 98.1189 8.5 97.513 8.86C96.9071 9.22 96.2287 9.4 95.4779 9.4H93.9763ZM90.9335 8.26H95.4779C96.2814 8.26 96.9466 7.98 97.4735 7.42C98.0004 6.86 98.2638 6.12 98.2638 5.2C98.2638 4.28 98.0004 3.54 97.4735 2.98C96.9466 2.42 96.2814 2.14 95.4779 2.14H90.9335V8.26Z" fill="white"/>
<path d="M110.548 15H101.854V1H110.548V2.14H103.04V7.36H110.153V8.5H103.04V13.86H110.548V15Z" fill="white"/>
<path d="M123.724 15H122.48L121.077 11.2H114.063L112.66 15H111.415L116.651 1H118.488L123.724 15ZM117.382 2.26L114.497 10.06H120.642L117.757 2.26H117.382Z" fill="white"/>
<path d="M133.4 15H125.102V1H126.287V13.86H133.4V15Z" fill="white"/>
<path d="M137.8 15H136.614V2.14H131.912V1H142.522V2.14H137.8V15Z" fill="white"/>
<path d="M148.922 15H147.736V9.76L142.678 1H143.943L148.132 8.3H148.527L152.735 1H154L148.922 9.76V15Z" fill="white"/>
</svg>
