<svg viewBox="0 0 24 24" fill="none" xmlns="http://www.w3.org/2000/svg"><g clip-path="url(#a)"><path fill="#fff" d="M3 5h18v14H3z"/><path fill-rule="evenodd" clip-rule="evenodd" d="M1.687 1.687C0 3.374 0 6.09 0 11.52v.96c0 5.43 0 8.146 1.687 9.833C3.374 24 6.09 24 11.52 24h.96c5.43 0 8.146 0 9.833-1.687C24 20.626 24 17.91 24 12.48v-.96c0-5.43 0-8.146-1.687-9.833C20.626 0 17.91 0 12.48 0h-.96C6.09 0 3.374 0 1.687 1.687z" fill="url(#b)"/><path d="m17.407 18.123-1.31 1.31s-3.403 1.458-8.264-3.403c-4.86-4.861-3.402-8.264-3.402-8.264l1.31-1.31a1.375 1.375 0 0 1 2.071.147l1.25 1.667c.41.548.356 1.314-.127 1.797L7.833 11.17s0 .972 1.945 2.916c1.944 1.945 2.916 1.945 2.916 1.945l1.102-1.102a1.375 1.375 0 0 1 1.797-.127l1.667 1.25c.669.502.738 1.48.147 2.072z" fill="#fff"/><path fill-rule="evenodd" clip-rule="evenodd" d="M18.643 5.22a.75.75 0 0 1 0 1.06L14.923 10h2.635a.75.75 0 0 1 0 1.5h-4.195a1 1 0 0 1-1-1V6.306a.75.75 0 0 1 1.5 0v2.633l3.72-3.72a.75.75 0 0 1 1.06 0z" fill="#fff"/></g><defs><linearGradient id="b" x1="9" y1="24" x2="15.5" y2="0" gradientUnits="userSpaceOnUse"><stop stop-color="#141416"/><stop offset="1" stop-color="#4E556F"/></linearGradient><clipPath id="a"><path fill="#fff" d="M0 0h24v24H0z"/></clipPath></defs></svg>