<svg viewBox="0 0 24 24" fill="none" xmlns="http://www.w3.org/2000/svg"><path d="M19.819 18.875a.668.668 0 0 1-.972.915l-3.655-3.895c-.691.022-3.872.117-2.875-1.387a.656.656 0 0 1 .654-.17 5.368 5.368 0 0 0 2.305.194.837.837 0 0 1 .727.267l3.816 4.076zm-5.82-5.545a3.323 3.323 0 0 0 2.358-.975l3.447-3.45a.668.668 0 0 0-.942-.945l-3.448 3.45a2 2 0 0 1-2.27.384l4.66-4.663a.668.668 0 1 0-.942-.943L12.2 10.851a2.002 2.002 0 0 1 .384-2.272l3.449-3.449a.667.667 0 0 0-.943-.943l-3.447 3.45a3.342 3.342 0 0 0-.424 4.197L4.195 18.86a.667.667 0 0 0 .943.944l7.024-7.028c.545.36 1.184.553 1.838.553zm-6.364-.69c.552.52 1.062-.171 1.434-.541a1.334 1.334 0 0 0 .359-1.201c-.411-1.149.594-2.49-.238-3.413L6.22 4.374a1.308 1.308 0 0 0-2.22.92C4.158 8.37 5.29 9.94 7.635 12.64z" fill="currentColor"/></svg>