<svg fill="none" xmlns="http://www.w3.org/2000/svg"><path d="m16.25 10.366-4.06 2.043a.424.424 0 0 1-.38 0l-4.06-2.043m8.5 0 3.493-1.758a.427.427 0 0 0 0-.762l-7.552-3.8a.424.424 0 0 0-.382 0l-7.552 3.8a.427.427 0 0 0 0 .762l3.493 1.758m8.5 0 3.507 1.766a.41.41 0 0 1 0 .747l-3.507 1.766m-8.5-4.279-3.507 1.766a.41.41 0 0 0 0 .747l3.507 1.766m0 0L4.243 16.41a.41.41 0 0 0 0 .747l7.528 3.79a.516.516 0 0 0 .458 0l7.528-3.79a.41.41 0 0 0 0-.747l-3.507-1.765m-8.5 0 4.02 2.023a.515.515 0 0 0 .46 0l4.02-2.023" stroke="currentColor"/></svg>