<svg xmlns="http://www.w3.org/2000/svg" fill="none" viewBox="0 0 24 24"><path fill="currentColor" d="m18.989 11.293-6.99 4.097-6.99-4.097a.68.68 0 0 0-.504-.074.67.67 0 0 0-.41.297.64.64 0 0 0-.075.493.65.65 0 0 0 .304.4l7.333 4.298a.68.68 0 0 0 .686 0l7.333-4.298a.65.65 0 0 0 .304-.4.64.64 0 0 0-.075-.493.67.67 0 0 0-.41-.297.68.68 0 0 0-.505.074z"/><path fill="currentColor" d="m18.989 14.493-6.99 4.096-6.99-4.096a.677.677 0 0 0-.914.223.64.64 0 0 0 .229.894l7.333 4.297a.68.68 0 0 0 .686 0l7.333-4.297a.65.65 0 0 0 .304-.4.64.64 0 0 0-.075-.494.67.67 0 0 0-.41-.296.68.68 0 0 0-.505.073zM4.323 9.365l6.656 3.954a2 2 0 0 0 2.042 0l6.656-3.954A.66.66 0 0 0 20 8.8a.66.66 0 0 0-.323-.566L13.02 4.28a2 2 0 0 0-2.042 0L4.323 8.234A.66.66 0 0 0 4 8.8a.66.66 0 0 0 .323.565"/></svg>