<svg fill="none" xmlns="http://www.w3.org/2000/svg"><path d="M8.98 9.755a13.342 13.342 0 0 0 2.601 3.664 13.341 13.341 0 0 0 3.664 2.6c.114.055.17.083.243.104.256.075.57.02.788-.135a1.84 1.84 0 0 0 .217-.2c.32-.32.48-.479.64-.584a1.827 1.827 0 0 1 1.992 0c.16.105.32.265.64.584l.178.178c.486.486.728.729.86.99a1.827 1.827 0 0 1 0 1.649c-.132.26-.374.503-.86.989l-.144.144c-.484.484-.726.726-1.055.91a3.086 3.086 0 0 1-1.35.352c-.378-.001-.636-.074-1.151-.22a17.396 17.396 0 0 1-7.57-4.454 17.395 17.395 0 0 1-4.452-7.569C4.074 8.242 4 7.984 4 7.607a3.085 3.085 0 0 1 .351-1.351c.185-.33.427-.571.91-1.055l.145-.144c.486-.486.728-.728.99-.86a1.827 1.827 0 0 1 1.649 0c.26.132.503.374.989.86l.178.178c.32.32.479.48.583.64a1.827 1.827 0 0 1 0 1.992c-.104.16-.264.32-.583.64-.105.104-.157.156-.2.218a.956.956 0 0 0-.135.787c.021.072.049.13.103.243z" fill="currentColor" stroke="currentColor" stroke-width="1.5" stroke-linecap="round" stroke-linejoin="round"/></svg>