<svg width="16" height="16" viewBox="0 0 16 16" fill="none" xmlns="http://www.w3.org/2000/svg">
<path d="M2.66667 5.33331H10.6667M10.6667 5.33331C10.6667 6.43788 11.5621 7.33331 12.6667 7.33331C13.7712 7.33331 14.6667 6.43788 14.6667 5.33331C14.6667 4.22874 13.7712 3.33331 12.6667 3.33331C11.5621 3.33331 10.6667 4.22874 10.6667 5.33331ZM6 10.6666H13.3333M6 10.6666C6 11.7712 5.10457 12.6666 4 12.6666C2.89543 12.6666 2 11.7712 2 10.6666C2 9.56208 2.89543 8.66665 4 8.66665C5.10457 8.66665 6 9.56208 6 10.6666Z" stroke="white" stroke-linecap="round"/>
</svg>
