<svg xmlns="http://www.w3.org/2000/svg" fill="none" viewBox="0 0 24 24"><g clip-path="url(#a)"><path fill="#fff" d="M3 5h18v14H3z"/><path fill="url(#b)" fill-rule="evenodd" d="M1.687 1.687C0 3.374 0 6.09 0 11.52v.96c0 5.43 0 8.146 1.687 9.833S6.09 24 11.52 24h.96c5.43 0 8.146 0 9.833-1.687S24 17.91 24 12.48v-.96c0-5.43 0-8.146-1.687-9.833S17.91 0 12.48 0h-.96C6.09 0 3.374 0 1.687 1.687" clip-rule="evenodd"/><path fill="#fff" d="M7.688 13.578 4.3 12.418s-.404-.173-.274-.564c.027-.08.08-.15.243-.267.75-.55 13.893-5.513 13.893-5.513s.37-.131.59-.044q.083.027.14.094a.34.34 0 0 1 .078.156q.035.155.03.314c-.002.091-.012.176-.02.309-.08 1.357-2.476 11.484-2.476 11.484s-.143.592-.657.613a.9.9 0 0 1-.37-.067.9.9 0 0 1-.315-.212c-1.008-.91-4.49-3.37-5.26-3.91a.15.15 0 0 1-.063-.11c-.01-.057.048-.128.048-.128s6.064-5.663 6.226-6.257c.012-.046-.035-.07-.098-.049-.403.156-7.385 4.788-8.156 5.3a.35.35 0 0 1-.171.01z"/></g><defs><linearGradient id="b" x1="12" x2="12" y1="24" y2="0" gradientUnits="userSpaceOnUse"><stop stop-color="#1d93d2"/><stop offset="1" stop-color="#38b0e3"/></linearGradient><clipPath id="a"><path fill="#fff" d="M0 0h24v24H0z"/></clipPath></defs></svg>