<svg viewBox="0 0 24 24" fill="none" xmlns="http://www.w3.org/2000/svg"><g clip-path="url(#a)"><path fill="#fff" d="M3 5h18v14H3z"/><path fill-rule="evenodd" clip-rule="evenodd" d="M1.687 1.687C0 3.374 0 6.09 0 11.52v.96c0 5.43 0 8.146 1.687 9.833C3.374 24 6.09 24 11.52 24h.96c5.43 0 8.146 0 9.833-1.687C24 20.626 24 17.91 24 12.48v-.96c0-5.43 0-8.146-1.687-9.833C20.626 0 17.91 0 12.48 0h-.96C6.09 0 3.374 0 1.687 1.687z" fill="url(#b)"/><path d="M17.692 6.348a7.993 7.993 0 0 0-12.806 9.248l-.848 4.117a.305.305 0 0 0 .049.24.308.308 0 0 0 .328.127l4.035-.957a7.992 7.992 0 0 0 9.242-12.775zm-1.258 10.043a6.26 6.26 0 0 1-7.21 1.172l-.563-.278-2.474.585.008-.03.512-2.49-.275-.544a6.258 6.258 0 1 1 10.002 1.585z" fill="#fff"/><path d="M16.214 14.564c-.303.478-.782 1.062-1.384 1.207-1.055.255-2.674.01-4.688-1.869l-.024-.022c-1.772-1.642-2.232-3.009-2.12-4.093.061-.615.574-1.171 1.006-1.535a.576.576 0 0 1 .901.207l.652 1.465a.572.572 0 0 1-.072.586l-.33.427a.567.567 0 0 0-.05.633c.184.324.626.8 1.117 1.24.55.499 1.162.954 1.548 1.11a.56.56 0 0 0 .614-.13l.382-.384a.585.585 0 0 1 .572-.147l1.548.44a.585.585 0 0 1 .328.865z" fill="#fff"/></g><defs><linearGradient id="b" x1="18" y1="0" x2="12" y2="24" gradientUnits="userSpaceOnUse"><stop stop-color="#5DFD7B"/><stop offset="1" stop-color="#21AB32"/></linearGradient><clipPath id="a"><path fill="#fff" d="M0 0h24v24H0z"/></clipPath></defs></svg>