<svg xmlns="http://www.w3.org/2000/svg" width="81" height="16" fill="none" viewBox="0 0 81 16"><path fill="#fff" d="M7.996 15.984c-.807.01-1.613-.07-2.403-.24a9.2 9.2 0 0 1-1.864-.614 6.46 6.46 0 0 1-2.403-1.892A6.8 6.8 0 0 1 0 10.478h5.617a2.4 2.4 0 0 0 .423.82c.2.227.441.413.711.548.38.183.8.269 1.221.25.456.038.913-.055 1.317-.27a.76.76 0 0 0 .37-.595.7.7 0 0 0-.394-.605 4.6 4.6 0 0 0-1.043-.432c-.437-.13-.928-.26-1.485-.389a29 29 0 0 1-1.682-.441 14 14 0 0 1-1.686-.605 6 6 0 0 1-1.48-.898A4.1 4.1 0 0 1 .84 6.569a3.9 3.9 0 0 1-.394-1.814c.01-.611.176-1.21.48-1.738a4.6 4.6 0 0 1 1.37-1.522A7.5 7.5 0 0 1 4.546.415 10.6 10.6 0 0 1 7.655 0c.736-.007 1.47.065 2.191.217a8.2 8.2 0 0 1 1.73.57c.467.219.904.495 1.302.822q.514.434.932.96a6.7 6.7 0 0 1 1.26 2.54H9.456a1.3 1.3 0 0 0-.288-.596 1.6 1.6 0 0 0-.52-.422 1.85 1.85 0 0 0-.874-.182 2.1 2.1 0 0 0-1.134.225.64.64 0 0 0-.327.528c0 .26.226.48.683.596.456.115 1.028.278 1.71.422a56 56 0 0 1 2.21.519 9.4 9.4 0 0 1 2.216.864 5.4 5.4 0 0 1 1.706 1.44c.477.67.718 1.479.682 2.3 0 .68-.165 1.35-.48 1.954a4.8 4.8 0 0 1-1.442 1.651c-.71.521-1.508.913-2.355 1.157-1.058.304-2.156.45-3.258.433M20.211 5.092h-4.719V.435h15.055v4.657h-4.719v10.456h-5.617zM49.805.435h6.29l4.2 7.124V.435h5.569v15.113h-6.29l-4.19-7.124v7.124h-5.58zM67.797.435h13.2V4.75h-7.583v1.406h7.583v3.668h-7.583v1.407h7.583v4.316h-13.2zM39.598 11.208a3.21 3.21 0 0 1-2.87-2.061 3.2 3.2 0 0 1 2.414-4.289 3.21 3.21 0 0 1 3.254 1.382 3.2 3.2 0 0 1 .532 1.765 3.263 3.263 0 0 1-3.33 3.203M47.96 4.87a7.5 7.5 0 0 0-1.798-2.535 8.7 8.7 0 0 0-2.83-1.704 11.37 11.37 0 0 0-7.458 0 8.5 8.5 0 0 0-2.83 1.704 7.4 7.4 0 0 0-1.797 2.535 8.05 8.05 0 0 0 0 6.242 7.3 7.3 0 0 0 1.797 2.54 8.5 8.5 0 0 0 2.83 1.704c2.416.832 5.042.832 7.458 0a8.7 8.7 0 0 0 2.83-1.705 7.5 7.5 0 0 0 1.798-2.54 8.1 8.1 0 0 0 0-6.24"/></svg>