<svg xmlns="http://www.w3.org/2000/svg" width="137" height="14" fill="none" viewBox="0 0 137 14"><path fill="#1c3040" d="M80.948 11.725a5.3 5.3 0 0 0 2.001-.365 4.57 4.57 0 0 0 2.614-2.629 6 6 0 0 0 0-4.142 4.7 4.7 0 0 0-1.035-1.601 4.6 4.6 0 0 0-1.579-1.032 5.69 5.69 0 0 0-4.006 0c-.592.23-1.13.582-1.578 1.032a4.7 4.7 0 0 0-1.032 1.601 5.95 5.95 0 0 0 0 4.142c.23.598.582 1.142 1.032 1.598.449.45.986.801 1.578 1.031.639.25 1.32.373 2.005.365m0 1.512a7 7 0 0 1-2.649-.488 6.2 6.2 0 0 1-2.094-1.37 6.3 6.3 0 0 1-1.376-2.082 7.2 7.2 0 0 1 0-5.278 6.3 6.3 0 0 1 1.376-2.079A6.1 6.1 0 0 1 78.3.571 7 7 0 0 1 80.95.08a7 7 0 0 1 2.636.492 6.25 6.25 0 0 1 3.49 3.448 7.26 7.26 0 0 1 0 5.278 6.24 6.24 0 0 1-3.49 3.452 7 7 0 0 1-2.637.488M89.523.435h8.614v1.513h-6.98v4.265h5.53v1.513h-5.53v5.154h-1.634zM99.531.435h8.614v1.513h-6.981v4.265h5.53v1.513h-5.53v5.154h-1.633zM111.172.435h-1.633V12.88h1.633zM119.769 13.25a7 7 0 0 1-2.649-.49 6.2 6.2 0 0 1-2.094-1.368 6.3 6.3 0 0 1-1.377-2.083 7.2 7.2 0 0 1 0-5.278 6.3 6.3 0 0 1 1.377-2.079A6.1 6.1 0 0 1 117.12.583a7.5 7.5 0 0 1 4.39-.294c.486.118.957.291 1.404.515q.593.298 1.097.73.444.38.815.833a6.4 6.4 0 0 1 1.198 2.257h-1.602a5.1 5.1 0 0 0-.962-1.508 5.4 5.4 0 0 0-.616-.55 4.4 4.4 0 0 0-.795-.482 5.347 5.347 0 0 0-2.249-.48 5.4 5.4 0 0 0-2.005.364 4.6 4.6 0 0 0-1.579 1.031 4.8 4.8 0 0 0-1.031 1.602 5.94 5.94 0 0 0 0 4.142 4.7 4.7 0 0 0 1.031 1.598c.45.449.987.8 1.579 1.031a5.4 5.4 0 0 0 2.005.365q.642.006 1.268-.144a4.8 4.8 0 0 0 1.043-.387q.438-.216.814-.524.335-.277.629-.597a5.3 5.3 0 0 0 .961-1.652h1.629a7.5 7.5 0 0 1-1.268 2.4q-.381.482-.842.888-.509.451-1.109.776c-.444.237-.915.419-1.404.543a6.8 6.8 0 0 1-1.721.205M127.914.435h8.885v1.513h-7.252V5.86h5.891v1.508h-5.891v4.002h7.252v1.509h-8.885z"/><path fill="#141416" d="M70.617 2.165h.593a.256.256 0 0 0 .29-.267c0-.155-.096-.26-.29-.26h-.593zm.574-.923a.686.686 0 0 1 .752.644.62.62 0 0 1-.35.566l.311.52h-.492l-.221-.411h-.574v.411h-.454V1.227zM70.97 3.55a1.39 1.39 0 0 0 1.462-1.416 1.42 1.42 0 0 0-1.462-1.4 1.408 1.408 0 1 0 0 2.816m0-3.289a1.896 1.896 0 0 1 1.939 1.885 1.94 1.94 0 1 1-1.94-1.885M6.577 13.203a9 9 0 0 1-1.962-.198 7.2 7.2 0 0 1-1.551-.508 5 5 0 0 1-1.164-.722q-.45-.382-.806-.853A5.6 5.6 0 0 1 0 8.642h4.63c.072.247.19.477.35.678.163.188.362.343.585.454.314.15.66.22 1.008.206a1.94 1.94 0 0 0 1.082-.221.62.62 0 0 0 .307-.493.57.57 0 0 0-.322-.496 3.7 3.7 0 0 0-.861-.357c-.36-.109-.776-.213-1.226-.322a32 32 0 0 1-1.388-.364 12 12 0 0 1-1.388-.5 5 5 0 0 1-1.222-.738 3.5 3.5 0 0 1-.86-1.07 3.2 3.2 0 0 1-.327-1.497c.007-.503.14-.997.388-1.435.28-.497.667-.926 1.133-1.256a6.1 6.1 0 0 1 1.85-.888A8.6 8.6 0 0 1 6.302 0 8.5 8.5 0 0 1 8.109.18q.74.16 1.427.473c.386.18.747.408 1.075.679q.424.35.775.775c.49.618.843 1.333 1.036 2.098H7.779a1.07 1.07 0 0 0-.24-.492 1.3 1.3 0 0 0-.423-.35 1.5 1.5 0 0 0-.725-.15 1.7 1.7 0 0 0-.934.19.53.53 0 0 0-.268.434c0 .213.186.388.566.488.38.101.846.23 1.404.35s1.163.26 1.827.426c.635.16 1.247.4 1.822.714a4.45 4.45 0 0 1 1.408 1.202c.395.551.595 1.219.566 1.896a3.5 3.5 0 0 1-.387 1.614 4.1 4.1 0 0 1-1.164 1.365 6.2 6.2 0 0 1-1.939.942c-.872.25-1.776.37-2.684.357M16.648 4.217h-3.89V.377h12.406v3.84h-3.886v8.63h-4.63zM41.047.378h5.185l3.463 5.875V.378h4.592v12.468h-5.185l-3.46-5.88v5.88h-4.595zM55.867.378H66.75v3.56h-6.251v1.16h6.251v3.028h-6.251v1.156h6.251v3.564H55.867zM32.646 9.262a2.645 2.645 0 1 1 2.745-2.64 2.695 2.695 0 0 1-2.745 2.64m6.887-5.228a6.1 6.1 0 0 0-1.481-2.09A6.9 6.9 0 0 0 35.725.536a9.35 9.35 0 0 0-6.147 0 6.9 6.9 0 0 0-2.327 1.408 6.1 6.1 0 0 0-1.481 2.09 6.64 6.64 0 0 0 0 5.15c.339.796.844 1.51 1.481 2.095a7 7 0 0 0 2.327 1.408 9.4 9.4 0 0 0 6.147 0 7.1 7.1 0 0 0 2.327-1.408 6.1 6.1 0 0 0 1.481-2.094 6.64 6.64 0 0 0 0-5.15"/></svg>