<svg xmlns="http://www.w3.org/2000/svg" width="166" height="16" fill="none" viewBox="0 0 166 16"><path fill="#98c5ea" d="M97.752 14.159c.826.01 1.647-.14 2.417-.44a5.5 5.5 0 0 0 1.906-1.246 5.7 5.7 0 0 0 1.25-1.93 7.25 7.25 0 0 0 0-5.001 5.7 5.7 0 0 0-1.25-1.935 5.5 5.5 0 0 0-1.906-1.245 6.87 6.87 0 0 0-4.838 0 5.5 5.5 0 0 0-1.906 1.245 5.6 5.6 0 0 0-1.246 1.935 7.18 7.18 0 0 0 0 5.001 5.6 5.6 0 0 0 1.246 1.93c.542.543 1.19.967 1.906 1.245.771.301 1.593.45 2.421.44m0 1.826a8.5 8.5 0 0 1-3.198-.59 7.5 7.5 0 0 1-2.53-1.653 7.7 7.7 0 0 1-1.662-2.515 8.7 8.7 0 0 1 0-6.374 7.6 7.6 0 0 1 1.663-2.51A7.4 7.4 0 0 1 94.553.69a8.5 8.5 0 0 1 3.2-.595 8.4 8.4 0 0 1 3.184.595 7.55 7.55 0 0 1 4.214 4.163c.8 2.05.8 4.325 0 6.374a7.52 7.52 0 0 1-4.214 4.168 8.4 8.4 0 0 1-3.185.59M108.109.525h10.402v1.827h-8.43v5.151h6.678V9.33h-6.678v6.224h-1.972zM120.195.525h10.402v1.827h-8.43v5.151h6.678V9.33h-6.678v6.224h-1.972zM134.245.525h-1.972v15.029h1.972zM144.627 16a8.5 8.5 0 0 1-3.198-.59 7.5 7.5 0 0 1-2.529-1.653 7.65 7.65 0 0 1-1.663-2.515 8.7 8.7 0 0 1 0-6.374 7.6 7.6 0 0 1 1.663-2.51 7.4 7.4 0 0 1 2.529-1.653 9.1 9.1 0 0 1 5.301-.356 8 8 0 0 1 1.695.623 6.6 6.6 0 0 1 1.325.88q.537.46.984 1.007a7.7 7.7 0 0 1 1.447 2.725h-1.934a6.2 6.2 0 0 0-1.162-1.821 6.4 6.4 0 0 0-.744-.665 5.3 5.3 0 0 0-.96-.581 6.45 6.45 0 0 0-2.716-.58 6.6 6.6 0 0 0-2.422.44 5.6 5.6 0 0 0-1.906 1.245 5.7 5.7 0 0 0-1.245 1.934 7.17 7.17 0 0 0 0 5.002c.281.72.704 1.377 1.245 1.93a5.6 5.6 0 0 0 1.906 1.245c.772.3 1.594.45 2.422.44a6.3 6.3 0 0 0 1.531-.173 5.8 5.8 0 0 0 1.26-.468q.528-.259.983-.633.404-.334.759-.72a6.4 6.4 0 0 0 1.161-1.996h1.967a9 9 0 0 1-1.531 2.9 8.4 8.4 0 0 1-1.016 1.072 7 7 0 0 1-1.34.936 7.6 7.6 0 0 1-1.695.656 8.2 8.2 0 0 1-2.079.248M154.469.525h10.729v1.827h-8.758v4.725h7.114V8.9h-7.114v4.833h8.758v1.822h-10.729z"/><path fill="#fff" d="M7.943 15.943a10.7 10.7 0 0 1-2.37-.239 8.7 8.7 0 0 1-1.873-.613 6.1 6.1 0 0 1-1.405-.871 6.5 6.5 0 0 1-.974-1.03A6.8 6.8 0 0 1 0 10.435h5.592c.086.298.229.576.421.82.198.226.438.412.707.547.38.181.798.266 1.218.248.452.04.906-.053 1.307-.267a.75.75 0 0 0 .37-.594.69.69 0 0 0-.39-.6 4.4 4.4 0 0 0-1.039-.43 29 29 0 0 0-1.48-.39 39 39 0 0 1-1.676-.44 14 14 0 0 1-1.677-.604 6 6 0 0 1-1.475-.89 4.2 4.2 0 0 1-1.04-1.292 3.86 3.86 0 0 1-.393-1.808 3.6 3.6 0 0 1 .468-1.732c.339-.6.806-1.119 1.368-1.518A7.4 7.4 0 0 1 4.515.414 10.4 10.4 0 0 1 7.61.002c.733-.006 1.465.066 2.182.215.594.128 1.172.32 1.724.571.465.218.9.493 1.297.82q.513.424.937.937A6.7 6.7 0 0 1 15 5.078H9.394a1.3 1.3 0 0 0-.29-.595 1.6 1.6 0 0 0-.51-.421 1.8 1.8 0 0 0-.876-.183 2.03 2.03 0 0 0-1.129.23.64.64 0 0 0-.323.524c0 .258.225.469.684.59.459.122 1.02.277 1.695.422.674.145 1.405.314 2.206.515a9.3 9.3 0 0 1 2.2.862c.663.36 1.242.854 1.7 1.451.478.666.719 1.472.685 2.29a4.2 4.2 0 0 1-.469 1.949c-.34.647-.82 1.21-1.405 1.648-.708.513-1.5.898-2.341 1.138a11.1 11.1 0 0 1-3.24.431M20.103 5.093h-4.697V.457h14.982v4.636h-4.693v10.42h-5.592zM49.57.457h6.262l4.182 7.095V.457h5.544v15.056h-6.26l-4.178-7.1v7.1h-5.55zM67.46.457h13.142v4.299h-7.55v1.4h7.55v3.657h-7.55v1.396h7.55v4.304H67.46zM39.423 11.185a3.194 3.194 0 1 1 3.316-3.19 3.255 3.255 0 0 1-3.316 3.19m8.317-6.313a7.4 7.4 0 0 0-1.789-2.524 8.4 8.4 0 0 0-2.81-1.7 11.3 11.3 0 0 0-7.422 0 8.4 8.4 0 0 0-2.81 1.7 7.4 7.4 0 0 0-1.79 2.524 8.02 8.02 0 0 0 0 6.22c.41.96 1.02 1.822 1.79 2.528a8.5 8.5 0 0 0 2.81 1.7c2.404.83 5.018.83 7.422 0a8.5 8.5 0 0 0 2.81-1.7 7.34 7.34 0 0 0 1.79-2.529 8.02 8.02 0 0 0 0-6.22"/></svg>