<svg xmlns="http://www.w3.org/2000/svg" width="157" height="16" fill="none" viewBox="0 0 157 16"><path fill="#fff" d="M20.057 5.097h-4.645V.435h14.816v4.662h-4.644V15.57h-5.527zM50 .435h6.008l4.503 7.135V.435h5.301V15.57h-6.008l-4.495-7.135v7.135H50zM68 .436V15.57h12.994v-4.11h-7.465v-1.62h7.465V6.165h-7.465v-1.62h7.465V.434zM48.073 4.877a7.4 7.4 0 0 0-1.77-2.54q-1.15-1.082-2.787-1.71-1.636-.626-3.67-.626t-3.671.627-2.786 1.708a7.4 7.4 0 0 0-1.77 2.541A7.9 7.9 0 0 0 31 8.001q0 1.665.619 3.124a7.4 7.4 0 0 0 1.77 2.54q1.15 1.082 2.786 1.708 1.638.628 3.67.627 2.037 0 3.671-.627 1.637-.626 2.787-1.707a7.45 7.45 0 0 0 1.77-2.541A7.9 7.9 0 0 0 48.69 8q0-1.665-.619-3.124m-8.23 6.343c-1.81 0-3.279-1.435-3.279-3.204s1.469-3.206 3.28-3.206 3.278 1.435 3.278 3.206-1.468 3.204-3.279 3.204M6.263 4.931l-.006-.01q-.013-.025-.022-.05l-.018-.044q0-.004-.002-.007a.6.6 0 0 1-.025-.158q0-.063.015-.124a.65.65 0 0 1 .213-.341q.037-.033.079-.066l.013-.012.007-.004c.284-.208.725-.343 1.222-.343 1.729 0 1.664 1.156 1.663 1.323h5.411a6.74 6.74 0 0 0-1.238-2.544 7 7 0 0 0-.917-.94 5.9 5.9 0 0 0-1.283-.822A8 8 0 0 0 9.672.217 9.8 9.8 0 0 0 7.516 0Q5.769 0 4.453.411q-1.315.412-2.211 1.08-.895.673-1.349 1.525A3.67 3.67 0 0 0 .44 4.757q0 1.06.388 1.816.386.758 1.028 1.298t1.46.897q.817.356 1.659.606.84.248 1.658.442.819.195 1.46.39.64.195 1.028.433.387.237.388.605c0 .216-.18.46-.408.621-.338.237-.87.393-1.472.393-1.961 0-2.182-1.456-2.182-1.772H0a6.86 6.86 0 0 0 2.29 3.784q.585.498 1.382.875.795.378 1.835.617Q6.545 16 7.85 16q1.813 0 3.205-.432 1.395-.434 2.323-1.146.928-.715 1.403-1.655a4.3 4.3 0 0 0 .476-1.957c0-5.04-8.146-4.31-8.994-5.881"/><path fill="url(#a)" d="M99.951.435h1.101l-6.044 15.132h-1.266L87.5.435h2.306l5.098 12.452h.083L99.952.435m8.901 0 6.937 15.132h-2.067l-2.873-6.253h-5.748l-2.624 6.253h-.986L107.794.435zm1.554 7.907-2.509-5.481h-.083l-2.307 5.481zM121.015.435h-1.931v15.132h9.605v-1.193h-7.674zm21.092 9.16q0 .476-.021.96a5.5 5.5 0 0 1-.13.97 4.7 4.7 0 0 1-.333.961 4 4 0 0 1-.649.95q-.767.845-1.723 1.145a6.6 6.6 0 0 1-1.994.301q-.893 0-1.584-.28a4.5 4.5 0 0 1-1.313-.839 3.7 3.7 0 0 1-.743-.864 4 4 0 0 1-.384-.855 3.5 3.5 0 0 1-.151-.855 19 19 0 0 1-.021-.865V.447h-1.93v9.297q0 .887.171 1.958.172 1.072.804 1.99.634.918 1.891 1.53 1.256.611 3.426.612 1.36 0 2.414-.428a4.9 4.9 0 0 0 1.765-1.188 5.1 5.1 0 0 0 1.074-1.761 6.3 6.3 0 0 0 .364-2.153V.447h-.935v9.149zM157 1.627V.435h-9.605v15.132H157v-1.193h-7.674V8.043h6.594V7.05h-6.594V1.626z"/><defs><linearGradient id="a" x1="86.245" x2="160.721" y1="-4.51" y2="18.548" gradientUnits="userSpaceOnUse"><stop stop-color="#b49266"/><stop offset=".07" stop-color="#c2a678"/><stop offset=".22" stop-color="#e7dba8"/><stop offset=".26" stop-color="#dbcb98"/><stop offset=".38" stop-color="#bc9e6d"/><stop offset=".5" stop-color="#e1c588"/><stop offset=".56" stop-color="#d0b079"/><stop offset=".62" stop-color="#c5a370"/><stop offset=".67" stop-color="#d8be88"/><stop offset=".73" stop-color="#e6d29a"/><stop offset=".76" stop-color="#ebd9a0"/><stop offset=".91" stop-color="#d0bc9a"/><stop offset=".99" stop-color="#c6b198"/></linearGradient></defs></svg>